<?xml version="1.0" encoding="UTF-8"?>
<svg version="1.1" xmlns="http://www.w3.org/2000/svg" width="953" height="954">
<path d="M0 0 C4.36141093 3.27536151 5.61937649 7.56087381 7.328125 12.52734375 C7.62672424 13.36611557 7.92532349 14.20488739 8.23297119 15.06907654 C9.16829476 17.70837189 10.0862167 20.35317729 11 23 C11.28367432 23.81607727 11.56734863 24.63215454 11.85961914 25.47296143 C13.26033854 29.50355088 14.6506226 33.53763182 16.03466797 37.57397461 C22.02979051 55.03576677 28.41259946 72.15515462 36 89 C36.52037842 90.18094238 36.52037842 90.18094238 37.05126953 91.38574219 C45.41163043 110.34695773 56.30706575 127.79248074 67.75 145.0234375 C68.83372537 146.68203558 69.91709597 148.34086555 71 150 C71.69029297 151.00981934 71.69029297 151.00981934 72.39453125 152.04003906 C74.12452123 154.72325931 75.1033624 156.32607712 74.609375 159.546875 C72.47974853 162.79300466 69.99904173 165.53164224 67.25 168.25 C66.68015381 168.81630127 66.11030762 169.38260254 65.52319336 169.96606445 C57.49313754 177.69429603 47.81149825 185.02356272 36.5 186.4375 C32.16180778 185.89522597 29.97835879 184.00995808 27 181 C7.79377317 154.25245006 -0.62303426 117.22961727 -10 86 C-11.56610461 91.89262775 -12.67508947 97.73992827 -13.5859375 103.765625 C-13.8798171 105.64459248 -14.17410072 107.52349681 -14.46875 109.40234375 C-14.92278566 112.32177348 -15.37372 115.2415726 -15.81738281 118.16259766 C-19.78433938 144.17650907 -19.78433938 144.17650907 -25.125 152.1875 C-29.16302035 154.73320848 -33.24541611 155.81507152 -38 155 C-53.9252127 144.00594453 -61.48822644 116.13175606 -69 99 C-68.91697632 100.48657104 -68.91697632 100.48657104 -68.83227539 102.00317383 C-68.79543137 102.66334 -68.75858734 103.32350616 -68.72062683 104.00367737 C-68.63750857 105.49296805 -68.55434703 106.98225632 -68.47114563 108.47154236 C-68.24072026 112.60039049 -68.01184225 116.72931641 -67.78564453 120.85839844 C-67.2533009 130.67951647 -67.2533009 130.67951647 -66.64453125 140.49609375 C-65.66416208 155.64329935 -65.90866564 170.82865991 -66 186 C-67.32 186.33 -68.64 186.66 -70 187 C-74.8944264 181.057073 -78.27831786 174.8446473 -81.5 167.875 C-81.9741333 166.86542236 -82.4482666 165.85584473 -82.93676758 164.81567383 C-93 143.27177953 -93 143.27177953 -93 140 C-93.66 140.33 -94.32 140.66 -95 141 C-93.68369067 147.4552198 -91.91780534 153.52492487 -89.69921875 159.72265625 C-89.38096634 160.62640488 -89.06271393 161.5301535 -88.7348175 162.46128845 C-87.72392812 165.3301121 -86.70626098 168.19646322 -85.6875 171.0625 C-78.02708177 192.67179468 -78.02708177 192.67179468 -75.01953125 202.05859375 C-74.62483643 203.28763428 -74.2301416 204.5166748 -73.82348633 205.78295898 C-73.06644073 208.74044189 -72.56770704 210.98067757 -73 214 C-74.485 214.99 -74.485 214.99 -76 216 C-83.41872997 210.30125491 -90.77373952 202.45252096 -95 194 C-95.71285156 194.0928125 -96.42570312 194.185625 -97.16015625 194.28125 C-98.11792969 194.3534375 -99.07570313 194.425625 -100.0625 194.5 C-101.00222656 194.5928125 -101.94195313 194.685625 -102.91015625 194.78125 C-107.86087479 193.52948804 -110.16275273 190.09048128 -113 186 C-114.75998796 182.9012855 -116.18622235 179.72214779 -117.5625 176.4375 C-117.93890625 175.56996094 -118.3153125 174.70242188 -118.703125 173.80859375 C-119.82135857 171.21337591 -120.91538631 168.60942623 -122 166 C-122.47928955 164.85168701 -122.47928955 164.85168701 -122.96826172 163.68017578 C-127.80615424 152.01847379 -127.80615424 152.01847379 -129 147 C-133.32457089 147.81140568 -137.64781272 148.62947503 -141.9699707 149.45361328 C-143.43902813 149.73277139 -144.90842708 150.01013868 -146.37817383 150.28564453 C-148.49654018 150.6830624 -150.61357531 151.08700643 -152.73046875 151.4921875 C-154.00301514 151.73308105 -155.27556152 151.97397461 -156.58666992 152.22216797 C-159.60244332 152.90940451 -162.23512452 153.6210613 -165 155 C-166.34562383 157.4836238 -166.34562383 157.4836238 -167.0625 160.5625 C-167.38476562 161.71878906 -167.70703125 162.87507812 -168.0390625 164.06640625 C-168.74285226 166.85372775 -169.36451878 169.65272342 -169.9609375 172.46484375 C-170.20638306 173.59394165 -170.20638306 173.59394165 -170.45678711 174.74584961 C-170.77073881 176.21802636 -171.06667217 177.6941932 -171.34204102 179.17407227 C-172.39393137 184.19046244 -173.98810252 186.82562273 -178 190 C-183.47372883 192.65766255 -189.09238754 193.8084528 -195 192 C-198.5056516 188.96176861 -198.64751767 185.47211962 -199 181 C-198.59708615 177.67438412 -197.88198825 174.44856527 -197.125 171.1875 C-196.93808594 170.32962891 -196.75117187 169.47175781 -196.55859375 168.58789062 C-195.17423975 162.34847949 -195.17423975 162.34847949 -194 160 C-194.66531738 160.35304199 -195.33063477 160.70608398 -196.01611328 161.06982422 C-199.04993358 162.67627512 -202.08740952 164.27569031 -205.125 165.875 C-206.17171875 166.43058594 -207.2184375 166.98617187 -208.296875 167.55859375 C-209.31523438 168.09355469 -210.33359375 168.62851562 -211.3828125 169.1796875 C-212.31496582 169.67194824 -213.24711914 170.16420898 -214.20751953 170.67138672 C-222.29620089 174.51983959 -229.89600081 175.57237517 -238.5559082 172.90454102 C-239.8291013 172.42755198 -241.09810038 171.93925821 -242.36328125 171.44140625 C-243.05475754 171.17521988 -243.74623383 170.90903351 -244.45866394 170.63478088 C-252.37871437 167.53750802 -260.09887882 164.01130865 -267.8125 160.4375 C-269.32973933 159.73937758 -270.8470748 159.04146407 -272.36450195 158.34375 C-285.99019399 152.06329499 -299.51929118 145.58547258 -313 139 C-312.9278125 140.07636719 -312.855625 141.15273438 -312.78125 142.26171875 C-312.5323459 146.08719003 -312.31754172 149.91373103 -312.12011719 153.7421875 C-312.01242963 155.7663633 -311.88632025 157.78953929 -311.7578125 159.8125 C-311.39418128 169.05301094 -311.39418128 169.05301094 -313.9375 172.75 C-317.91944201 175.67550842 -321.15131955 175.97887285 -326 176 C-326.03738281 176.80179688 -326.07476562 177.60359375 -326.11328125 178.4296875 C-326.52649115 185.57578817 -327.28357731 192.56342454 -328.4375 199.625 C-328.55971924 200.39440918 -328.68193848 201.16381836 -328.80786133 201.95654297 C-329.42796217 205.59978653 -330.0576881 208.82167143 -332 212 C-334.44365781 211.0399017 -335.7323951 210.49972192 -336.99414062 208.14355469 C-338.56491981 202.87287233 -339.76098353 197.70045654 -340.5 192.25 C-340.68163696 190.94289063 -340.68163696 190.94289063 -340.86694336 189.609375 C-344.13297172 164.57473132 -345.34967736 139.18149393 -347 114 C-349.72840047 117.32075058 -352.17138869 120.70213115 -354.5 124.3125 C-374.331578 154.24349272 -401.26302196 189.84846664 -438 198 C-442.42615178 198.86598622 -446.67793817 199.1919992 -451.1875 199.25 C-453.00314453 199.28867187 -453.00314453 199.28867187 -454.85546875 199.328125 C-458 199 -458 199 -459.8984375 197.66015625 C-461.67131762 194.98826245 -461.43010111 193.13359382 -461 190 C-457.87652643 183.61107679 -451.34221623 177.17110811 -445 174 C-444.60140583 164.23914013 -445.81600793 154.7163517 -447.0625 145.0625 C-447.17192932 144.20184937 -447.28135864 143.34119873 -447.394104 142.45446777 C-450.98005055 114.35395529 -455.43917416 86.3766049 -460.8125 58.5625 C-460.95943298 57.79715942 -461.10636597 57.03181885 -461.25775146 56.24328613 C-461.67185566 54.09965362 -462.09382922 51.95776245 -462.51953125 49.81640625 C-462.75776611 48.61443604 -462.99600098 47.41246582 -463.24145508 46.17407227 C-463.93999064 43.25110452 -464.64084229 40.67986003 -466 38 C-468.35809816 36.75812675 -470.45405009 35.81888617 -472.9375 34.9375 C-480.82393081 32.07335371 -480.82393081 32.07335371 -483 28 C-483.65095405 24.02918031 -483.9662883 21.61726148 -481.88671875 18.13671875 C-472.20492217 7.30175533 -455.06590304 3.74332822 -441.19140625 2.71875 C-436.75034321 2.74975662 -434.0174464 4.46201515 -430.625 7.1875 C-429.40929304 8.10865241 -428.19312347 9.02919452 -426.9765625 9.94921875 C-426.0160498 10.69051025 -426.0160498 10.69051025 -425.03613281 11.44677734 C-421.41447927 14.20948236 -417.70032458 16.84420089 -414 19.5 C-412.46457836 20.61031017 -410.92941934 21.72098362 -409.39453125 22.83203125 C-406.08108654 25.22551455 -402.75388044 27.59842622 -399.41796875 29.96044922 C-381.53611612 42.64021661 -364.76753316 55.79058356 -351 73 C-351.33 64.42 -351.66 55.84 -352 47 C-357.04180385 47.19675832 -357.04180385 47.19675832 -362.08081055 47.45043945 C-366.1208488 47.52961583 -367.67398769 47.23345622 -371.08203125 44.79296875 C-373 42 -373 42 -373.046875 39.42578125 C-368.20706197 28.21113987 -351.32363569 21.24683245 -340.75390625 16.91015625 C-323.73561568 11.28567157 -304.27797325 15.07811136 -288.625 22.8125 C-279.29228199 27.64740075 -271.13662184 33.22533581 -264 41 C-260.89267096 39.61439191 -258.7586276 37.97369275 -256.3125 35.625 C-251.82667375 31.6468461 -247.07730944 28.30830317 -240.93359375 27.84375 C-237.13586142 28.14102846 -234.41034497 29.24201671 -231.125 31.125 C-224.00782877 34.97225763 -215.06977823 31.72957165 -207.6328125 29.86328125 C-205.90634829 29.44685789 -204.17978285 29.03085409 -202.453125 28.61523438 C-199.77236627 27.96208341 -197.09285654 27.30451626 -194.41503906 26.6394043 C-191.80292595 25.9934922 -189.1871317 25.36480964 -186.5703125 24.73828125 C-185.76925079 24.53423172 -184.96818909 24.33018219 -184.14285278 24.11994934 C-178.56796392 22.80034313 -178.56796392 22.80034313 -175.46435547 23.89135742 C-174.98111816 24.25720947 -174.49788086 24.62306152 -174 25 C-175.1634418 31.98065077 -178.57730957 35.60458943 -184 40 C-194.69624206 47.54518697 -212.60138139 59 -226 59 C-225.93941406 59.54938232 -225.87882812 60.09876465 -225.81640625 60.66479492 C-225.54149181 63.17206752 -225.27071044 65.67977015 -225 68.1875 C-224.85691406 69.48397461 -224.85691406 69.48397461 -224.7109375 70.80664062 C-224.62070312 71.64775391 -224.53046875 72.48886719 -224.4375 73.35546875 C-224.35371094 74.12528076 -224.26992188 74.89509277 -224.18359375 75.68823242 C-223.98929818 78.13475467 -223.96964341 80.54680839 -224 83 C-223.22922119 82.72736328 -222.45844238 82.45472656 -221.66430664 82.17382812 C-218.13526776 80.93473277 -214.59912757 79.71725786 -211.0625 78.5 C-209.85013672 78.07074219 -208.63777344 77.64148438 -207.38867188 77.19921875 C-200.7101087 74.91873376 -195.07113301 73.12970671 -188 74 C-186.25683594 75.37792969 -186.25683594 75.37792969 -185 77 C-185.18455236 82.44868886 -188.40495697 85.02649466 -192.1484375 88.59765625 C-200.89119787 95.96313245 -210.77589445 100.88794723 -221 106 C-221 116.56 -221 127.12 -221 138 C-218.56882812 137.2059375 -216.13765625 136.411875 -213.6328125 135.59375 C-211.28326861 134.82856039 -208.93339947 134.06437778 -206.58349609 133.30029297 C-204.94773601 132.76781814 -203.3123173 132.23429345 -201.67724609 131.69970703 C-199.32998716 130.93247079 -196.98153537 130.16899111 -194.6328125 129.40625 C-193.89942657 129.16563843 -193.16604065 128.92502686 -192.41043091 128.67712402 C-187.22774341 127 -187.22774341 127 -185 127 C-184.90420654 126.43144287 -184.80841309 125.86288574 -184.7097168 125.27709961 C-183.18491807 116.55624806 -181.28492295 107.92323211 -179.4024353 99.27450562 C-176.8270791 87.43527434 -174.2671562 75.59652045 -171.9921875 63.6953125 C-171.83701157 62.88430588 -171.68183563 62.07329926 -171.5219574 61.23771667 C-170.79685545 57.43160076 -170.08331078 53.62368557 -169.3840332 49.81274414 C-164.59141336 24.05400255 -164.59141336 24.05400255 -156 17 C-151.61254986 14.13988838 -147.19010218 13.31451481 -142 14 C-138.21580206 16.98210272 -137.00821102 20.02230903 -135.546875 24.54296875 C-135.32961258 25.20338669 -135.11235016 25.86380463 -134.88850403 26.54423523 C-134.16425608 28.75511498 -133.45732058 30.97115234 -132.75 33.1875 C-132.23804433 34.76030205 -131.72491141 36.33272132 -131.21069336 37.90478516 C-130.08340675 41.35835989 -128.96361919 44.81425003 -127.84912109 48.27197266 C-124.79771504 57.73534507 -121.70408145 67.18499582 -118.61804199 76.63711548 C-117.58259303 79.81336445 -116.5510581 82.99085985 -115.52050781 86.16870117 C-112.42889505 95.68565142 -109.30711013 105.17195009 -105.82788086 114.55517578 C-105 117 -105 117 -105 119 C-102.36 119 -99.72 119 -97 119 C-97.14622803 117.79053711 -97.29245605 116.58107422 -97.44311523 115.33496094 C-97.99139337 110.79518719 -98.53675841 106.25506722 -99.08129883 101.71484375 C-99.31619638 99.75967181 -99.55185626 97.80459129 -99.78833008 95.84960938 C-101.54622552 81.31073627 -103.17822866 66.91243054 -103.3125 52.25 C-103.34150391 51.17878906 -103.37050781 50.10757813 -103.40039062 49.00390625 C-103.46371488 41.08350317 -102.21410545 35.79083002 -97.0625 29.71484375 C-83.05645542 17.64524094 -83.05645542 17.64524094 -74.81640625 16.59375 C-72 17 -72 17 -70.3828125 18.40625 C-66.27861447 25.23808274 -62.72592281 32.31486407 -59.23486328 39.47314453 C-56.78188132 44.49259161 -54.2979876 49.49659212 -51.8125 54.5 C-51.31347168 55.51457275 -50.81444336 56.52914551 -50.30029297 57.57446289 C-49.8157666 58.55020264 -49.33124023 59.52594238 -48.83203125 60.53125 C-48.40639893 61.39298828 -47.9807666 62.25472656 -47.54223633 63.14257812 C-45.52984557 66.87109188 -43.27863936 70.42971783 -41 74 C-40.88177887 73.11582649 -40.88177887 73.11582649 -40.76116943 72.21379089 C-39.93189354 66.03018175 -39.085298 59.84911376 -38.22900391 53.66918945 C-37.91245956 51.36835413 -37.60020618 49.06692394 -37.29248047 46.76489258 C-36.84713658 43.43922584 -36.38595153 40.11606703 -35.921875 36.79296875 C-35.72316803 35.27040718 -35.72316803 35.27040718 -35.52044678 33.71708679 C-34.05012899 23.41136193 -31.88802401 14.42285628 -23.578125 7.72265625 C-16.6449241 3.09001746 -8.50718892 -0.88616551 0 0 Z M-320 45 C-319.25328373 57.50833215 -318.36180814 70.00370566 -317.4375 82.5 C-317.29744561 84.40233783 -317.15747118 86.30468155 -317.01757812 88.20703125 C-316.67930411 92.80475568 -316.33995889 97.40239986 -316 102 C-315.67 102 -315.34 102 -315 102 C-314.773125 101.071875 -314.54625 100.14375 -314.3125 99.1875 C-312.12833135 93.88309043 -307.19329813 92.602177 -302.1875 90.3125 C-295.30844386 86.88991542 -289.47466328 82.52938793 -286 75.5 C-284.51406449 70.29922571 -284.11752959 66.17070697 -286.21484375 61.01171875 C-290.85731295 53.17945671 -299.66744588 49.17981695 -308.1171875 46.67578125 C-312.09317352 45.74374117 -315.92640475 45.27157302 -320 45 Z M-427 50 C-426.41858002 57.66284594 -425.13620137 65.13368849 -423.75961304 72.68869019 C-420.28109512 91.89685468 -417.74978781 111.21633931 -415.27294922 130.57543945 C-415.12862961 131.69977386 -414.98431 132.82410828 -414.83561707 133.98251343 C-414.56360048 136.10810077 -414.29403587 138.2340038 -414.02729797 140.36026001 C-413.9063829 141.30928192 -413.78546783 142.25830383 -413.66088867 143.23608398 C-413.55685226 144.06317368 -413.45281586 144.89026337 -413.34562683 145.74241638 C-413.01903072 147.87569414 -412.56117401 149.91743418 -412 152 C-398.96399066 145.96798691 -386.18642371 130.30616114 -380.875 117.23046875 C-378.20188014 107.36140569 -378.90551787 95.90344073 -384 87 C-384.42410156 86.24589844 -384.84820312 85.49179687 -385.28515625 84.71484375 C-394.4465595 69.83713318 -410.97023363 58.49161225 -426 50 C-426.33 50 -426.66 50 -427 50 Z M-255 74 C-255.474375 75.11375 -255.94875 76.2275 -256.4375 77.375 C-264.39450353 93.17732981 -280.54571108 102.92273338 -296.75 108.375 C-298.49708283 108.92600305 -300.24603245 109.47132184 -302 110 C-296.20431481 115.39598276 -288.66608015 117.94683728 -281.4140625 120.828125 C-277.54892817 122.36622801 -273.70935942 123.9555754 -269.87890625 125.578125 C-268.84185547 126.01640625 -267.80480469 126.4546875 -266.73632812 126.90625 C-264.59164284 127.81427675 -262.44844699 128.72582828 -260.30664062 129.640625 C-259.27861328 130.07375 -258.25058594 130.506875 -257.19140625 130.953125 C-256.26529541 131.34661133 -255.33918457 131.74009766 -254.38500977 132.14550781 C-251.95154188 133.16864122 -251.95154188 133.16864122 -249 133 C-248.7641604 127.22192976 -249.13216954 122.48675196 -251 117 C-251.61488281 116.90203125 -252.22976563 116.8040625 -252.86328125 116.703125 C-259.42307692 115.48951049 -259.42307692 115.48951049 -262.0625 113.25 C-263.37408898 110.10218644 -263.59926201 108.39581808 -263 105 C-260.09349444 100.44647462 -256.68533289 97.64198498 -252 95 C-252.10962816 91.8742604 -252.24031241 88.74975219 -252.375 85.625 C-252.4059375 84.73554688 -252.436875 83.84609375 -252.46875 82.9296875 C-252.52675781 81.65351563 -252.52675781 81.65351563 -252.5859375 80.3515625 C-252.6173584 79.56604004 -252.6487793 78.78051758 -252.68115234 77.97119141 C-252.8399465 75.76997061 -252.8399465 75.76997061 -255 74 Z M-149 85 C-151.12692578 93.40588221 -153.22472139 101.81899672 -155.25 110.25 C-155.42499023 110.96406006 -155.59998047 111.67812012 -155.78027344 112.41381836 C-156.57279855 115.74377926 -157 118.55073269 -157 122 C-154.39547729 121.85913398 -151.79149803 121.71251536 -149.1875 121.5625 C-148.44951172 121.52318359 -147.71152344 121.48386719 -146.95117188 121.44335938 C-143.76928658 121.25618965 -141.03837622 121.01279207 -138 120 C-140.11439831 111.32978572 -142.30275402 102.67955183 -144.625 94.0625 C-144.83084717 93.27568848 -145.03669434 92.48887695 -145.2487793 91.67822266 C-145.77095913 89.76758168 -146.37808779 87.88054405 -147 86 C-147.66 85.67 -148.32 85.34 -149 85 Z " fill="#FBFAFC" transform="translate(829,216)"/>
<path d="M0 0 C3.43936102 4.28547612 4.56682929 9.70052925 6.0390625 14.8984375 C6.32158875 15.87359818 6.60411499 16.84875885 6.89520264 17.85346985 C7.81235732 21.02528336 8.71921443 24.19992267 9.625 27.375 C10.56566799 30.65270602 11.50777039 33.92999747 12.44998169 37.20726013 C13.07680054 39.38843641 13.70267633 41.56988393 14.3276062 43.75160217 C16.1372488 50.05655156 17.99700618 56.3426246 19.921875 62.61328125 C20.54699411 64.67228327 21.17095741 66.73163207 21.7946167 68.79107666 C22.35457379 70.62075661 22.93209154 72.44503394 23.51025391 74.26904297 C25.70192474 81.55383997 27.68725514 89.41939412 26 97 C21.02179349 101.75290952 15.9482434 103.85734306 9.125 104.1875 C1.5596228 102.81332016 -4.19322259 95.74431883 -9.625 90.75 C-25.18992862 76.64656702 -43.97855671 61.9169782 -66 63 C-66.9197611 70.05150179 -64.12064542 74.4076955 -60 80 C-47.02684858 96.07034523 -26.25243085 106.90179176 -9.17871094 117.93798828 C31.94819314 144.61677721 31.94819314 144.61677721 47 160 C47.02694851 158.04174127 47.04637218 156.08337774 47.0625 154.125 C47.07990234 152.48917969 47.07990234 152.48917969 47.09765625 150.8203125 C47.19744303 148.04822454 47.19744303 148.04822454 46 146 C44.01440208 145.27557606 44.01440208 145.27557606 41.6875 144.6875 C38.46724116 143.6603042 36.97365957 142.97679533 34.375 140.6875 C33 138 33 138 32.6875 135.1875 C34.20385977 131.504912 35.46170742 130.84243942 38.625 128.5625 C41.56495795 126.06189983 42.85684432 124.8403566 43.51171875 120.99609375 C43.28029258 116.93479135 42.69571083 113.0005356 42 109 C41.67887704 106.94433931 41.36002101 104.88832371 41.04296875 102.83203125 C39.56057134 91.79813019 39.56057134 91.79813019 37 81 C35.1535131 79.85774323 35.1535131 79.85774323 33 79 C29.02754955 76.29303482 26.42027261 73.90520255 24.375 69.5 C23.89919731 65.05917493 24.32750147 63.58878375 27 60 C33.6548104 54.37428399 41.22456245 50.52195336 50.0625 51.0625 C53.52557104 51.39992744 55.23642792 52.14805162 58.25 54.03515625 C64.2504428 57.14096243 71.04089729 56.51881033 77.62329102 56.41162109 C79.9010224 56.37557724 82.1770936 56.37059977 84.45507812 56.37109375 C93.48783019 56.3269764 102.32216075 55.67156387 111.27539062 54.48535156 C116.17235778 53.84723078 121.07900959 53.40388258 126 53 C126.8046875 55.14453125 126.8046875 55.14453125 127 58 C125.43020136 60.15772703 123.99998003 61.84016713 122.125 63.6875 C118.66188994 67.04224727 118.66188994 67.04224727 116 71 C116.70125 70.525625 117.4025 70.05125 118.125 69.5625 C123.9231236 66.41134587 130.28441608 66.85251291 136.71875 66.8671875 C137.65368286 66.86623077 138.58861572 66.86527405 139.55187988 66.86428833 C141.5287279 66.86360944 143.50557817 66.86544341 145.48242188 66.86962891 C148.4622926 66.87493288 151.44200924 66.86969912 154.421875 66.86328125 C179.40425798 66.8491734 179.40425798 66.8491734 185 68 C187.399545 71.59931749 187.81480111 72.76303423 187 77 C179.65740535 86.75423864 165.36979836 89.78018223 154 92 C153.01 92 152.02 92 151 92 C151.01160156 92.63421875 151.02320313 93.2684375 151.03515625 93.921875 C151.13229877 103.96918733 150.55495361 113.97119547 150 124 C150.58378418 123.84853516 151.16756836 123.69707031 151.76904297 123.54101562 C154.46801805 122.84828757 157.17131465 122.17409945 159.875 121.5 C160.7928125 121.26152344 161.710625 121.02304687 162.65625 120.77734375 C168.72039236 119.28266077 174.74448617 118.15209207 181 119 C181.99 119.66 182.98 120.32 184 121 C183.61945485 126.32763206 181.66893599 129.30333608 178 133 C175.76938681 134.83697557 173.42314511 136.42881539 171 138 C170.3507959 138.43368896 169.7015918 138.86737793 169.03271484 139.31420898 C164.69770549 142.13380863 160.42772511 144.15943343 155.625 146.0625 C152.49250199 147.37564386 152.49250199 147.37564386 150 149 C148.67456647 152.78695295 148.69715526 154.13872954 149 158 C149.01060676 160.35310875 148.98308127 162.70463369 148.95825195 165.05761719 C148.92802869 168.70574331 148.96458224 172.35197101 149 176 C149.969375 175.55269531 150.93875 175.10539063 151.9375 174.64453125 C184.43680819 159.88476987 184.43680819 159.88476987 195.265625 163.82421875 C197 165 197 165 198 167.75 C198 172.03791347 196.57197948 173.61083641 194 177 C181.03263039 189.02054579 164.46305858 198.08690134 149.125 206.6875 C148.06599487 207.28401367 148.06599487 207.28401367 146.9855957 207.89257812 C139.44541024 212.02853722 132.66520928 215.35198538 124 213 C121.46852825 211.8459467 119.33438179 210.53969863 117 209 C116.45546251 198.71429185 118.12199249 189.06075452 120 179 C114.04010373 182.40888006 108.14331518 185.88477061 102.34619141 189.5625 C69.34314656 210.49086136 69.34314656 210.49086136 61.40625 209.76171875 C56.81589786 208.30860403 54.56686835 203.85030253 52 200 C51.27296875 201.45019531 51.27296875 201.45019531 50.53125 202.9296875 C46.4099901 210.99866962 42.12145326 218.24490278 36 225 C35.25105469 225.84175781 34.50210938 226.68351563 33.73046875 227.55078125 C22.44939142 239.56084581 9.13829379 246.94775151 -7.38305664 247.46875 C-17.18189148 247.56900185 -25.939025 247.04364624 -35 243 C-35.91241455 242.60530518 -35.91241455 242.60530518 -36.84326172 242.20263672 C-47.58721764 237.48597334 -56.78052249 231.2060284 -66 224 C-64.70683006 226.804157 -63.3042567 228.99171449 -61.2421875 231.28515625 C-60.70239258 231.89311035 -60.16259766 232.50106445 -59.60644531 233.12744141 C-59.03506836 233.76601074 -58.46369141 234.40458008 -57.875 235.0625 C-42.55301787 252.49390737 -42.55301787 252.49390737 -42 259 C-43.5625 261.375 -43.5625 261.375 -46 263 C-52.52012501 263.30326163 -57.84903922 258.7967472 -62.49853516 254.66992188 C-70.93494322 246.85525341 -78.20147745 238.25216036 -85 229 C-85.49387207 228.3292041 -85.98774414 227.6584082 -86.49658203 226.96728516 C-95.8183762 214.21970945 -103.92840787 201.04287359 -111.375 187.125 C-111.79217285 186.35236816 -112.2093457 185.57973633 -112.63916016 184.78369141 C-115.9498861 178.48777397 -118.94254781 172.454313 -119.0625 165.2421875 C-117.70271558 161.09284533 -115.53325387 159.40481285 -112 157.125 C-111.38640625 156.71080811 -110.7728125 156.29661621 -110.140625 155.86987305 C-105.22687103 152.62986652 -100.15097688 149.65749008 -95 146.8125 C-94.29488281 146.41369629 -93.58976562 146.01489258 -92.86328125 145.60400391 C-89.53591608 143.84446151 -87.54913311 142.98756433 -83.72265625 143.07421875 C-75.35046342 145.92100455 -69.97822104 155.83100689 -64.86254883 162.63647461 C-61.1161002 167.60540844 -57.21587271 172.32011477 -52.96875 176.875 C-51.10867615 178.88269876 -49.37013368 180.95516876 -47.625 183.0625 C-36.44054661 195.80816999 -17.22041613 209.84367863 0.2109375 211.16796875 C6.50174715 211.22474501 11.60911971 210.71519673 16.875 206.9375 C19.80135443 202.89224534 20.56765319 199.96507322 20 195 C11.68540736 165.66441161 -29.02170968 143.82951205 -52.51538086 127.89477539 C-93.84742278 99.82764844 -93.84742278 99.82764844 -100.6484375 80.12109375 C-102.41472429 69.46449681 -101.61006396 58.90906425 -95.375 49.9375 C-87.6765744 40.46541752 -78.34700841 33.74124478 -66 32 C-49.92127389 31.05430318 -37.7366169 33.49325641 -23 40 C-23.433125 38.85402344 -23.86625 37.70804688 -24.3125 36.52734375 C-24.87559098 34.99761324 -25.43805798 33.46765295 -26 31.9375 C-26.28617187 31.18533203 -26.57234375 30.43316406 -26.8671875 29.65820312 C-28.56301667 24.99467291 -29.8332991 21.0055814 -29 16 C-25.4780139 9.73556754 -19.59309632 6.63774707 -13.375 3.5 C-12.529375 3.04625 -11.68375 2.5925 -10.8125 2.125 C-3.463907 -1.67679575 -3.463907 -1.67679575 0 0 Z M95.6875 81.1875 C88.70394706 84.03827573 81.86586265 86.29603336 74.52734375 88.078125 C73.69332031 88.38234375 72.85929688 88.6865625 72 89 C70.61046382 93.16860855 71.31415356 96.68777774 71.8125 101 C71.89564453 101.81984375 71.97878906 102.6396875 72.06445312 103.484375 C72.15275391 104.27328125 72.24105469 105.0621875 72.33203125 105.875 C72.41171143 106.59429687 72.4913916 107.31359375 72.57348633 108.0546875 C72.94458089 110.31080804 72.94458089 110.31080804 75 113 C75.87011719 112.60167969 75.87011719 112.60167969 76.7578125 112.1953125 C88.31175427 106.97125302 99.27278561 103.91634101 112 106 C113.13253652 112.22895086 112.70366626 116.91748904 111 123 C110.36707031 122.81050781 109.73414063 122.62101562 109.08203125 122.42578125 C108.39496094 122.28527344 107.70789063 122.14476562 107 122 C105.58245275 123.24850835 105.58245275 123.24850835 104 125 C98.88373154 128.04369092 93.63420246 130.83743686 88.375 133.625 C87.26898438 134.21667969 87.26898438 134.21667969 86.140625 134.8203125 C82.48847125 136.75765571 78.88897739 138.57045495 75 140 C74.97047239 143.29164717 74.95302708 146.58325938 74.9375 149.875 C74.92912109 150.7928125 74.92074219 151.710625 74.91210938 152.65625 C74.79880694 161.88428129 74.79880694 161.88428129 76 171 C76.66 171.33 77.32 171.66 78 172 C80.50920371 170.98194599 82.9294995 169.90428751 85.375 168.75 C94.55653106 164.58304503 103.76084034 161.08578932 114 162 C116.5 163 116.5 163 118 164 C118.33 162.02 118.66 160.04 119 158 C117.7625 157.938125 116.525 157.87625 115.25 157.8125 C112.02663291 157.38882475 111.0735725 157.05921689 108.4375 154.9375 C106.05888767 150.07685742 107.3115842 146.0652474 109 141 C110.3153341 140.29848848 111.65117592 139.63474075 113 139 C117.84626353 134.98971693 117.70344891 128.73635783 118.34375 122.828125 C118.64316762 119.2184792 118.84329854 115.61871056 119 112 C119.03399902 111.2663623 119.06799805 110.53272461 119.10302734 109.77685547 C119.19874528 107.47622377 119.2606808 105.17700606 119.3125 102.875 C119.35721436 101.79109985 119.35721436 101.79109985 119.40283203 100.68530273 C119.44099308 97.24634303 119.27864364 95.37032638 117.18359375 92.5859375 C114.57683711 90.69265808 112.09435446 89.84391485 109 89 C108.34 85.7 107.68 82.4 107 79 C102.66565283 77.55521761 99.70672863 79.50071446 95.6875 81.1875 Z " fill="#FCFBFC" transform="translate(179,199)"/>
<path d="M0 0 C5.57136283 3.95787409 6.76428846 11.90872024 7.84765625 18.23046875 C8.14036171 20.1303627 8.4250472 22.03150378 8.703125 23.93359375 C9.03678678 26.11863848 9.37149365 28.30352379 9.70703125 30.48828125 C9.89023926 31.69194336 10.07344727 32.89560547 10.26220703 34.13574219 C10.9711884 38.742612 11.72526098 43.34192445 12.48046875 47.94140625 C12.61745682 48.77712158 12.75444489 49.61283691 12.89558411 50.47387695 C13.44748111 53.83934865 13.9997809 57.20475037 14.55484009 60.56970215 C14.94501028 62.93804078 15.33217869 65.30685293 15.71875 67.67578125 C15.83729843 68.39033478 15.95584686 69.10488831 16.07798767 69.84109497 C16.53655444 72.66321304 16.890625 75.31839896 16.890625 78.18359375 C17.43662354 78.12300781 17.98262207 78.06242187 18.54516602 78 C29.46505127 76.8198399 40.34038908 75.9639001 51.328125 75.87109375 C52.27953369 75.85369141 53.23094238 75.83628906 54.21118164 75.81835938 C60.68429345 75.82297684 65.9067497 76.47945676 70.890625 80.99609375 C71.890625 83.18359375 71.890625 83.18359375 72.140625 86.05859375 C69.98446406 91.4489961 64.61179266 93.99712584 59.42578125 96.25830078 C56.89002673 97.1802572 54.34360213 98.01254893 51.765625 98.80859375 C50.40497925 99.24570679 50.40497925 99.24570679 49.0168457 99.69165039 C41.37569971 102.11481405 33.67192322 104.25918666 25.890625 106.18359375 C27.05424852 113.74214278 28.86454425 120.74421764 31.453125 127.93359375 C31.79593506 128.9093335 32.13874512 129.88507324 32.49194336 130.89038086 C34.36809144 136.16712639 36.35104383 141.38722289 38.453125 146.578125 C38.87005615 147.61163086 39.2869873 148.64513672 39.71655273 149.70996094 C40.52475688 151.6943295 41.34665002 153.67319217 42.18383789 155.64550781 C45.77496838 164.42121029 45.77496838 164.42121029 43.890625 169.18359375 C42.04296875 170.86328125 42.04296875 170.86328125 39.828125 172.05859375 C39.09464844 172.46851563 38.36117187 172.8784375 37.60546875 173.30078125 C36.75662109 173.73777344 36.75662109 173.73777344 35.890625 174.18359375 C36.46937159 176.72638461 37.05245385 179.26797602 37.640625 181.80859375 C37.81819336 182.57606934 37.99576172 183.34354492 38.17871094 184.13427734 C39.6022246 190.18483587 41.28957525 196.10487416 43.15625 202.03515625 C43.96631759 205.50810558 44.01595728 208.62952834 43.890625 212.18359375 C42.900625 212.51359375 41.910625 212.84359375 40.890625 213.18359375 C30.85878848 207.10094174 23.69606113 195.30032304 17.8125 185.51953125 C16.07508688 182.99253531 16.07508688 182.99253531 13.28125 182.28515625 C10.87497766 181.9894279 10.87497766 181.9894279 8.890625 183.18359375 C6.015625 183.55859375 6.015625 183.55859375 2.890625 183.18359375 C-1.16936209 179.2154264 -2.30364977 175.05441934 -3.58984375 169.71484375 C-3.79820358 168.88625854 -4.00656342 168.05767334 -4.22123718 167.20397949 C-6.40588812 158.32923975 -8.19484835 149.37444721 -9.90454102 140.39794922 C-10.43238693 137.6284396 -10.97040364 134.86103784 -11.50976562 132.09375 C-11.85213929 130.32172593 -12.19395836 128.54959459 -12.53515625 126.77734375 C-12.69446121 125.95560669 -12.85376617 125.13386963 -13.01789856 124.28723145 C-13.60197924 121.20801966 -14.109375 118.32544823 -14.109375 115.18359375 C-14.68089294 115.33900131 -15.25241089 115.49440887 -15.84124756 115.65452576 C-64.64805662 128.91984094 -64.64805662 128.91984094 -86.421875 134.37109375 C-87.12671021 134.5487326 -87.83154541 134.72637146 -88.55773926 134.90939331 C-124.02496592 143.82748647 -124.02496592 143.82748647 -132.234375 139.55859375 C-134.109375 137.18359375 -134.109375 137.18359375 -134.859375 134.05859375 C-135.271875 133.10984375 -135.684375 132.16109375 -136.109375 131.18359375 C-138.41345524 130.33055641 -140.58359279 129.93710951 -143.015625 129.60546875 C-145.109375 129.18359375 -145.109375 129.18359375 -147.109375 127.18359375 C-147.92872377 122.98443133 -146.94608291 120.4823452 -144.734375 116.99609375 C-141.43366496 112.36105412 -137.65399846 108.2044354 -133.76953125 104.0546875 C-131.72074374 101.84344106 -129.72625424 99.61066683 -127.75 97.3359375 C-124.18484455 93.2440401 -120.51401491 89.26242002 -116.796875 85.30859375 C-116.14460938 84.61314453 -115.49234375 83.91769531 -114.8203125 83.20117188 C-110.45592086 78.5656198 -106.02123806 74.02554773 -101.453125 69.58984375 C-99.52021112 67.6053855 -97.7162708 65.58896287 -95.91186523 63.49047852 C-92.39558665 59.4601011 -88.71298473 55.64196327 -84.92578125 51.8671875 C-84.26658188 51.2070314 -83.60738251 50.54687531 -82.9282074 49.86671448 C-81.54540665 48.48323869 -80.16136424 47.10100292 -78.77612305 45.7199707 C-76.67707157 43.62627706 -74.5834156 41.52729501 -72.49023438 39.42773438 C-71.13573714 38.07389804 -69.78092969 36.720372 -68.42578125 35.3671875 C-67.50352501 34.44189491 -67.50352501 34.44189491 -66.56263733 33.49790955 C-62.7835024 29.73871358 -58.88470516 26.1706823 -54.8440094 22.69384766 C-52.65163666 20.78506533 -50.57914558 18.76088218 -48.484375 16.74609375 C-36.81841666 6.25923686 -15.99417872 -6.19033954 0 0 Z M-34.80859375 41.65234375 C-38.69366651 45.62137683 -42.45190085 49.6500622 -46.0703125 53.86328125 C-48.14486624 56.22398034 -50.27418066 58.52294625 -52.41894531 60.81958008 C-57.41807523 66.17345175 -62.16461881 71.63100055 -66.74609375 77.3515625 C-69.99390036 81.24356216 -73.44695561 84.93025736 -76.94921875 88.59375 C-80.09511204 91.92469584 -82.66763605 95.30349076 -85.109375 99.18359375 C-77.76790059 97.79857805 -70.53688143 96.10428574 -63.30078125 94.25 C-62.2122435 93.97139633 -61.12370575 93.69279266 -60.00218201 93.40574646 C-57.72019466 92.81988935 -55.43862898 92.23238755 -53.1574707 91.64331055 C-49.66004426 90.74304843 -46.15921255 89.85691374 -42.65820312 88.97070312 C-40.43467127 88.3980066 -38.2113559 87.82446872 -35.98828125 87.25 C-34.94144669 86.98739883 -33.89461212 86.72479767 -32.8160553 86.45423889 C-31.36325417 86.07385719 -31.36325417 86.07385719 -29.88110352 85.68579102 C-28.6039724 85.35841698 -28.6039724 85.35841698 -27.30104065 85.02442932 C-24.88533598 84.09764087 -23.66649451 83.24190742 -22.109375 81.18359375 C-22.20385618 78.36303378 -22.20385618 78.36303378 -23.0234375 75.22265625 C-23.29027344 74.02769531 -23.55710937 72.83273437 -23.83203125 71.6015625 C-24.12980469 70.34988281 -24.42757812 69.09820312 -24.734375 67.80859375 C-25.00894531 66.59558594 -25.28351563 65.38257813 -25.56640625 64.1328125 C-26.39701843 60.47889884 -27.25140866 56.83117078 -28.109375 53.18359375 C-28.68079663 50.7124958 -29.25117508 48.2411563 -29.8203125 45.76953125 C-30.0682959 44.69493652 -30.3162793 43.6203418 -30.57177734 42.51318359 C-30.74918457 41.74441895 -30.9265918 40.9756543 -31.109375 40.18359375 C-33.2315273 39.96561482 -33.2315273 39.96561482 -34.80859375 41.65234375 Z " fill="#FAFAFB" transform="translate(427.109375,410.81640625)"/>
<path d="M0 0 C0.99902344 0.556875 1.99804688 1.11375 3.02734375 1.6875 C10.57430595 6.1918562 16.70433482 11.93985611 23 18 C23.65871094 18.58394531 24.31742188 19.16789062 24.99609375 19.76953125 C36.86063218 30.59283998 47.15523452 50.20431546 48.2175293 66.29492188 C48.34175307 70.21885623 48.38751737 74.13708726 48.375 78.0625 C48.3737915 78.75763702 48.37258301 79.45277405 48.37133789 80.16897583 C48.27271366 101.00244324 42.31177719 119.44256813 28 135 C26.89398437 136.24330078 26.89398437 136.24330078 25.765625 137.51171875 C16.03759911 147.89145879 0.71511149 159.47487977 -13.93554688 160.19287109 C-18.20062757 160.28280293 -22.46652113 160.32205247 -26.73242188 160.35009766 C-28.56328112 160.36657151 -30.39407837 160.3937468 -32.22460938 160.43212891 C-43.15789264 160.6597407 -52.21610232 160.54273742 -62 155 C-62.94576904 154.47672119 -63.89153809 153.95344238 -64.8659668 153.41430664 C-84.74669394 141.99699738 -98.25982113 123.26204301 -104.2734375 101.3515625 C-109.78341968 75.93454792 -106.56156639 51.48574763 -94 29 C-93.34 28.01 -92.68 27.02 -92 26 C-92.721875 26.28875 -93.44375 26.5775 -94.1875 26.875 C-95.115625 27.24625 -96.04375 27.6175 -97 28 C-97.825 28.37125 -98.65 28.7425 -99.5 29.125 C-102.16252066 30.05688223 -104.20115212 30.15993416 -107 30 C-107.89660372 27.55924542 -108.1293795 26.36212922 -107.2421875 23.87890625 C-97.42305462 7.24248969 -80.67194946 -5.96631432 -62.2121582 -11.53979492 C-40.35463369 -16.08691265 -18.92602958 -10.66956864 0 0 Z M-53.6484375 30.19921875 C-64.47092398 46.81750382 -67.14849973 67.14024357 -64 86.4375 C-61.25360302 98.7574223 -55.62271269 111.40280053 -44.7734375 118.4453125 C-35.78673602 123.70508761 -27.48203114 125.5167655 -17.12890625 123.41796875 C-7.28386552 120.35972205 0.46526295 113.2366092 5.75 104.46875 C12.27299546 91.58583396 13.66575379 75.12710699 9.3125 61.25 C8.59109518 59.47905135 7.82361069 57.72578952 7 56 C6.649375 55.23042969 6.29875 54.46085937 5.9375 53.66796875 C-2.16194031 37.60970342 -16.11566114 26.62811295 -33 21 C-42.98535934 19.58043357 -47.73541698 22.31052075 -53.6484375 30.19921875 Z " fill="#F9F8FA" transform="translate(619,412)"/>
<path d="M0 0 C2.1875 2.1875 2.1875 2.1875 2.48828125 5.27734375 C2.13819931 9.82840896 1.05389775 13.6475033 -0.4375 17.9375 C-0.70747803 18.72592285 -0.97745605 19.5143457 -1.25561523 20.32666016 C-7.68892998 38.54288278 -7.68892998 38.54288278 -14.8125 42.1875 C-21.70105789 44.40484696 -27.61623248 42.34784474 -34.30078125 40.23046875 C-37.51061665 39.27715835 -40.56842497 38.67389228 -43.875 38.1875 C-48.15895867 37.48086764 -50.7590269 36.44453798 -53.8125 33.1875 C-55.42011233 29.97227533 -55.20761945 26.67994744 -54.8125 23.1875 C-53.77417247 20.4997312 -52.78011325 18.27960987 -51.375 15.8125 C-51.01664063 15.16692139 -50.65828125 14.52134277 -50.2890625 13.85620117 C-45.95450995 6.3241662 -40.38387127 -1.80881096 -32.08984375 -5.2578125 C-21.29559003 -7.88694462 -9.64565332 -5.23038948 0 0 Z " fill="#FDFDFD" transform="translate(708.8125,530.8125)"/>
<path d="M0 0 C5.29598118 3.83700155 7.30788456 9.78593103 8.5078125 16.02587891 C9.08566272 20.15076638 9.19878389 24.2690434 9.23828125 28.4296875 C9.24851318 29.26516113 9.25874512 30.10063477 9.26928711 30.96142578 C9.14314358 39.83734295 6.62322556 46.00435396 0.5625 52.484375 C-2.5543353 55.37314918 -5.08522722 55.9547304 -9.19921875 56.5546875 C-13.41425059 55.93999536 -14.5155316 54.40470426 -17.19921875 51.1171875 C-22.15278088 44.24281877 -26.19220448 36.9158532 -30.13671875 29.4296875 C-30.73806641 28.32818359 -31.33941406 27.22667969 -31.95898438 26.09179688 C-32.52166016 25.02380859 -33.08433594 23.95582031 -33.6640625 22.85546875 C-34.17573975 21.89680908 -34.68741699 20.93814941 -35.21459961 19.95043945 C-36.39787987 16.54553803 -36.13964925 14.56502676 -35.19921875 11.1171875 C-27.84120435 1.61934238 -11.55799283 -4.63962057 0 0 Z " fill="#FDFDFD" transform="translate(507.19921875,524.8828125)"/>
<path d="M0 0 C0.66 0.33 1.32 0.66 2 1 C1.34 1.99 0.68 2.98 0 4 C-0.5838196 6.9149255 -0.5838196 6.9149255 0 10 C2.54128895 13.36347067 4.01161922 14.802081 8.1796875 15.63671875 C9.57574219 15.81654297 9.57574219 15.81654297 11 16 C11.25427943 22.56450302 11.4289559 29.12773152 11.54931641 35.69604492 C11.59950123 37.92829839 11.66766917 40.1602248 11.75439453 42.39135742 C12.46037469 61.02508088 12.46037469 61.02508088 8.76464844 66.02294922 C6.20757427 67.80524904 3.93258646 68.97976361 1 70 C-0.89488952 71.89488952 -0.18019112 74.57139146 -0.23046875 77.08984375 C-0.1702792 79.2412636 -0.1702792 79.2412636 2 81 C4.20250992 81.46006346 4.20250992 81.46006346 6.625 81.625 C8.06875 81.74875 9.5125 81.8725 11 82 C11 85.63 11 89.26 11 93 C10.236875 92.505 9.47375 92.01 8.6875 91.5 C-2.77838677 86.83591047 -13.73903151 92.2066374 -24.4375 96.625 C-25.38496094 97.02976562 -26.33242188 97.43453125 -27.30859375 97.8515625 C-29.85660725 98.93881354 -32.4278535 99.9711414 -35 101 C-35.33 88.79 -35.66 76.58 -36 64 C-31.71 62.35 -27.42 60.7 -23 59 C-18.94015934 56.95338023 -18.94015934 56.95338023 -14.92578125 54.8203125 C-14.29027344 54.54960937 -13.65476562 54.27890625 -13 54 C-12.34 54.33 -11.68 54.66 -11 55 C-27.5 66 -27.5 66 -34 66 C-33.34 76.23 -32.68 86.46 -32 97 C-25.82006665 94.46526251 -25.82006665 94.46526251 -19.64672852 91.91455078 C-11.51402018 88.62031019 -3.82589578 86.39131753 5 87 C5.99 87.66 6.98 88.32 8 89 C8.66 87.35 9.32 85.7 10 84 C8.1746875 84.185625 8.1746875 84.185625 6.3125 84.375 C2.55917951 84.36164299 2.06554667 84.05350748 -1.0625 81.5 C-2.85593829 78.92839188 -3.32053949 77.06020639 -3.125 73.9375 C-2.29722107 69.76676769 -0.25871282 67.71559402 3 65 C8.45674612 60.31896779 8.06620115 52.17413056 8.625 45.4375 C8.95369433 39.89839188 9.15896691 34.3601981 9.25 28.8125 C9.27143066 28.081521 9.29286133 27.35054199 9.31494141 26.59741211 C9.36354637 22.60916648 9.36354637 22.60916648 7.67578125 19.1015625 C5.83139415 17.8323001 5.83139415 17.8323001 2.9375 16.5625 C-0.22137954 14.88224492 -0.95482916 14.32554358 -2 11 C-2.38290462 9.00889599 -2.72604615 7.00899487 -3 5 C-3.61488281 5.22816406 -4.22976563 5.45632813 -4.86328125 5.69140625 C-5.67152344 5.97886719 -6.47976563 6.26632812 -7.3125 6.5625 C-8.11300781 6.85253906 -8.91351563 7.14257812 -9.73828125 7.44140625 C-12 8 -12 8 -15 7 C-12.54595776 5.80283341 -10.08748321 4.6170654 -7.625 3.4375 C-6.92632812 3.09525391 -6.22765625 2.75300781 -5.5078125 2.40039062 C-3.69947784 1.53969288 -1.85148044 0.76347564 0 0 Z " fill="#3C1B6A" transform="translate(288,273)"/>
<path d="M0 0 C-2.3535311 0.79359736 -4.70778883 1.58491783 -7.0625 2.375 C-7.71927734 2.59671875 -8.37605469 2.8184375 -9.05273438 3.046875 C-13.34016957 4.48306019 -17.6438323 5.78775047 -22 7 C-21.69393651 10.29229866 -21.37905797 13.58369514 -21.0625 16.875 C-20.97548828 17.81214844 -20.88847656 18.74929688 -20.79882812 19.71484375 C-20.71181641 20.61074219 -20.62480469 21.50664062 -20.53515625 22.4296875 C-20.456604 23.25710449 -20.37805176 24.08452148 -20.29711914 24.93701172 C-20.10222637 27.0581666 -20.10222637 27.0581666 -19 29 C-18.41992188 28.73445313 -17.83984375 28.46890625 -17.2421875 28.1953125 C-6.96965459 23.5506359 6.65592257 18.0679891 18 22 C20.6094334 25.59785514 20.01282025 28.62463756 19.40625 32.80859375 C18.90758771 35.49849322 18.46068213 37.66290859 17 40 C14.5 40.6875 14.5 40.6875 12 41 C11.34 41.66 10.68 42.32 10 43 C9.01 42.67 8.02 42.34 7 42 C7.95712891 41.16855469 7.95712891 41.16855469 8.93359375 40.3203125 C9.75988281 39.59585938 10.58617187 38.87140625 11.4375 38.125 C12.26121094 37.40570313 13.08492188 36.68640625 13.93359375 35.9453125 C16.05982155 34.16761255 16.05982155 34.16761255 17 32 C17.04022391 29.6670134 17.04320247 27.33293334 17 25 C9.90637701 21.4531885 0.07023013 24.82454458 -7 27 C-11.7030656 28.56768853 -16.35712231 30.26235495 -21 32 C-25.79110577 24.81334135 -24.13378828 13.38406536 -24 5 C-23.05898437 4.73445313 -22.11796875 4.46890625 -21.1484375 4.1953125 C-19.90320313 3.84210938 -18.65796875 3.48890625 -17.375 3.125 C-16.14523437 2.77695312 -14.91546875 2.42890625 -13.6484375 2.0703125 C-11.33785957 1.392477 -9.04572221 0.6447579 -6.7890625 -0.1953125 C-3.95442613 -1.01314876 -2.7083173 -1.0416605 0 0 Z " fill="#2E105E" transform="translate(273,282)"/>
<path d="M0 0 C6.20776106 -0.33860515 11.29648027 0.42039979 17 3 C17.66 3.66 18.32 4.32 19 5 C10 3 10 3 1 1 C1.08040527 1.72251953 1.16081055 2.44503906 1.24365234 3.18945312 C3.0799234 19.77614117 4.71353382 36.36139608 6 53 C6.59296875 52.35546875 7.1859375 51.7109375 7.796875 51.046875 C10.49814677 48.53718279 12.39019186 48.32816438 16 48 C13.84145761 50.15854239 11.61978408 51.45499913 9 53 C7.68348662 54.09701184 7.68348662 54.09701184 7.8125 56.8125 C7.99217561 59.86698544 8.42335596 61.43795344 10 64 C7.03 64.495 7.03 64.495 4 65 C3.9498877 64.21165771 3.89977539 63.42331543 3.84814453 62.61108398 C3.60979363 58.88637831 3.36834915 55.1618818 3.125 51.4375 C3.08086975 50.76027893 3.0367395 50.08305786 2.99127197 49.38531494 C2.40040296 40.37036481 1.71007862 31.37107423 0.875 22.375 C0.18326938 14.88643312 -0.29133221 7.5260821 0 0 Z " fill="#44286D" transform="translate(508,260)"/>
<path d="M0 0 C0.66 0.33 1.32 0.66 2 1 C1.01 2.485 1.01 2.485 0 4 C-0.5838196 6.9149255 -0.5838196 6.9149255 0 10 C2.54128895 13.36347067 4.01161922 14.802081 8.1796875 15.63671875 C9.57574219 15.81654297 9.57574219 15.81654297 11 16 C11.02526945 22.6752034 11.04283268 29.35039457 11.05493164 36.02563477 C11.05997325 38.29842591 11.06680637 40.5712138 11.07543945 42.84399414 C11.08751261 46.10303551 11.09322987 49.36203417 11.09765625 52.62109375 C11.10281754 53.64400009 11.10797882 54.66690643 11.11329651 55.72080994 C11.11340981 57.13215965 11.11340981 57.13215965 11.11352539 58.57202148 C11.115746 59.40475082 11.11796661 60.23748016 11.12025452 61.09544373 C11 63 11 63 10 64 C8.33382885 64.04063832 6.66611905 64.042721 5 64 C5.20496094 63.29617188 5.40992188 62.59234375 5.62109375 61.8671875 C7.79944565 53.88337146 8.72074758 46.25910195 9 38 C9.02723145 37.26394531 9.05446289 36.52789062 9.08251953 35.76953125 C9.15972424 33.4504767 9.20978356 31.13247038 9.25 28.8125 C9.28226685 27.71578979 9.28226685 27.71578979 9.31518555 26.59692383 C9.36343818 22.60893696 9.36343818 22.60893696 7.67578125 19.1015625 C5.83139415 17.8323001 5.83139415 17.8323001 2.9375 16.5625 C-0.22137954 14.88224492 -0.95482916 14.32554358 -2 11 C-2.38290462 9.00889599 -2.72604615 7.00899487 -3 5 C-3.61488281 5.22816406 -4.22976563 5.45632813 -4.86328125 5.69140625 C-5.67152344 5.97886719 -6.47976563 6.26632812 -7.3125 6.5625 C-8.51326172 6.99755859 -8.51326172 6.99755859 -9.73828125 7.44140625 C-12 8 -12 8 -15 7 C-12.54595776 5.80283341 -10.08748321 4.6170654 -7.625 3.4375 C-6.57699219 2.92413086 -6.57699219 2.92413086 -5.5078125 2.40039062 C-3.69947784 1.53969288 -1.85148044 0.76347564 0 0 Z " fill="#2A0B59" transform="translate(288,273)"/>
<path d="M0 0 C4.31778888 2.29669621 6.39927717 4.9478315 7.9375 9.5625 C8.32340202 12.29689144 8.43692248 14.83837736 7.9375 17.5625 C5.24915033 20.09271146 3.4547105 20.50043474 -0.1875 20.9375 C-3.0625 20.5625 -3.0625 20.5625 -4.8125 19.5625 C-7.61346473 15.08095644 -8.89141797 8.7728415 -8.0625 3.5625 C-5.35710224 0.37967911 -4.20184947 -0.60026421 0 0 Z M-6.0625 3.5625 C-5.74208603 6.16530568 -5.74208603 6.16530568 -5.0625 8.5625 C-4.7325 7.5725 -4.4025 6.5825 -4.0625 5.5625 C-2.4125 5.8925 -0.7625 6.2225 0.9375 6.5625 C1.2675 9.5325 1.5975 12.5025 1.9375 15.5625 C-2.8125 14.8125 -2.8125 14.8125 -5.0625 12.5625 C-4.48797254 16.49325644 -4.48797254 16.49325644 -2.0625 19.5625 C1.47212587 19.55760849 1.47212587 19.55760849 4.9375 18.5625 C6.70285081 16.18914317 7.0050906 15.03266319 6.58203125 12.08984375 C6.30746094 11.23519531 6.03289062 10.38054687 5.75 9.5 C5.48832031 8.64277344 5.22664063 7.78554687 4.95703125 6.90234375 C3.90357574 4.48464318 3.00417875 3.18035457 0.9375 1.5625 C-2.54471301 1.13783988 -3.5275931 1.0275931 -6.0625 3.5625 Z M-2.0625 6.5625 C-3.41868499 7.68784105 -3.41868499 7.68784105 -3.125 10.625 C-3.104375 11.594375 -3.08375 12.56375 -3.0625 13.5625 C-1.7425 13.2325 -0.4225 12.9025 0.9375 12.5625 C0.59305119 10.08983235 0.59305119 10.08983235 -0.0625 7.5625 C-0.7225 7.2325 -1.3825 6.9025 -2.0625 6.5625 Z " fill="#300460" transform="translate(440.0625,217.4375)"/>
<path d="M0 0 C0.99 0.33 1.98 0.66 3 1 C4.89212737 1.22179785 6.78884472 1.40614015 8.6875 1.5625 C10.440625 1.706875 12.19375 1.85125 14 2 C14 8.6 14 15.2 14 22 C4.8231849 19.31998895 -3.9076414 16.14716211 -12.6875 12.375 C-13.85216797 11.88515625 -15.01683594 11.3953125 -16.21679688 10.890625 C-24.73791318 7.26208682 -24.73791318 7.26208682 -27 5 C-23.37304792 5.37199508 -20.37072816 6.19115961 -17.09375 7.71875 C-11.12159764 10.42987698 -5.0322908 12.83037157 1.0625 15.25 C2.21427734 15.70890625 3.36605469 16.1678125 4.55273438 16.640625 C7.3678585 17.76200225 10.18384153 18.88122287 13 20 C12.01 12.575 12.01 12.575 11 5 C9.55625 4.731875 8.1125 4.46375 6.625 4.1875 C4.1640625 3.73046875 4.1640625 3.73046875 2 3 C1.34 2.01 0.68 1.02 0 0 Z " fill="#432470" transform="translate(567,329)"/>
<path d="M0 0 C0.66 0.33 1.32 0.66 2 1 C-14.5 12 -14.5 12 -21 12 C-20.93417725 12.95366455 -20.86835449 13.9073291 -20.80053711 14.88989258 C-20.5578744 18.42856611 -20.32304436 21.96772343 -20.09057617 25.50708008 C-19.9888725 27.03879902 -19.88504579 28.57037854 -19.77905273 30.10180664 C-19.62705918 32.30321569 -19.48271036 34.5050134 -19.33984375 36.70703125 C-19.29093491 37.39150833 -19.24202606 38.07598541 -19.19163513 38.78120422 C-18.99725777 41.88428867 -19.00476374 44.01429122 -20 47 C-20.66 47 -21.32 47 -22 47 C-22.33 34.79 -22.66 22.58 -23 10 C-18.71 8.35 -14.42 6.7 -10 5 C-5.94015934 2.95338023 -5.94015934 2.95338023 -1.92578125 0.8203125 C-1.29027344 0.54960937 -0.65476562 0.27890625 0 0 Z " fill="#260A58" transform="translate(275,327)"/>
<path d="M0 0 C0.99 0.33 1.98 0.66 3 1 C3.33 13.54 3.66 26.08 4 39 C3.34 38.67 2.68 38.34 2 38 C1.67 31.73 1.34 25.46 1 19 C-1.475 22.465 -1.475 22.465 -4 26 C-4.33 25.34 -4.66 24.68 -5 24 C-4.38125 22.96875 -3.7625 21.9375 -3.125 20.875 C0.30610319 14.50971202 -0.17139569 7.06150233 0 0 Z " fill="#301469" transform="translate(574,273)"/>
<path d="M0 0 C-2.3535311 0.79359736 -4.70778883 1.58491783 -7.0625 2.375 C-7.71927734 2.59671875 -8.37605469 2.8184375 -9.05273438 3.046875 C-13.34016957 4.48306019 -17.6438323 5.78775047 -22 7 C-21.91621094 7.83402344 -21.83242187 8.66804688 -21.74609375 9.52734375 C-21.1388338 16.23795059 -20.98363527 22.33716455 -22 29 C-22.33 29 -22.66 29 -23 29 C-23.79681084 20.97497656 -24.12867289 13.06350113 -24 5 C-23.05898437 4.73445313 -22.11796875 4.46890625 -21.1484375 4.1953125 C-19.90320313 3.84210938 -18.65796875 3.48890625 -17.375 3.125 C-16.14523437 2.77695312 -14.91546875 2.42890625 -13.6484375 2.0703125 C-11.33785957 1.392477 -9.04572221 0.6447579 -6.7890625 -0.1953125 C-3.95442613 -1.01314876 -2.7083173 -1.0416605 0 0 Z " fill="#412374" transform="translate(273,282)"/>
<path d="M0 0 C0.33 0 0.66 0 1 0 C1.33 3.3 1.66 6.6 2 10 C2.804375 9.0409375 2.804375 9.0409375 3.625 8.0625 C6.44367193 5.61470596 8.33860732 5.33285388 12 5 C9.84145761 7.15854239 7.61978408 8.45499913 5 10 C3.68348662 11.09701184 3.68348662 11.09701184 3.8125 13.8125 C3.99217561 16.86698544 4.42335596 18.43795344 6 21 C4.02 21.33 2.04 21.66 0 22 C0 14.74 0 7.48 0 0 Z " fill="#2D1160" transform="translate(512,303)"/>
<path d="M0 0 C2.0625 0.4375 2.0625 0.4375 4 1 C3.4225 1.3403125 2.845 1.680625 2.25 2.03125 C-2.17846517 4.75157121 -2.17846517 4.75157121 -4.6015625 9.109375 C-4.69059332 11.53164545 -4.69059332 11.53164545 -4 15 C-1.60236815 17.39763185 -0.66726502 17.34280586 2.625 17.625 C3.44226563 17.69976562 4.25953125 17.77453125 5.1015625 17.8515625 C5.72804688 17.90054687 6.35453125 17.94953125 7 18 C6.67 18.99 6.34 19.98 6 21 C0.96416241 20.82929364 -1.12994553 20.72800476 -5.0625 17.4375 C-7.18403531 13.67348575 -7.53252 12.02304354 -6.7265625 7.8984375 C-5.55187813 4.82910092 -3.49004813 3.0542897 -1 1 C-0.67 0.67 -0.34 0.34 0 0 Z " fill="#422173" transform="translate(292,337)"/>
<path d="M0 0 C0.33 0 0.66 0 1 0 C1 8.58 1 17.16 1 26 C-0.65 26 -2.3 26 -4 26 C-3.79503906 25.29617188 -3.59007812 24.59234375 -3.37890625 23.8671875 C-1.20709919 15.90735874 -0.3531488 8.23202033 0 0 Z " fill="#1F024F" transform="translate(297,311)"/>
<path d="M0 0 C2 2 2 2 3 8 C-8.385 8.99 -8.385 8.99 -20 10 C-20 8.35 -20 6.7 -20 5 C-19.34 4.67 -18.68 4.34 -18 4 C-18 5.32 -18 6.64 -18 8 C-8.595 7.01 -8.595 7.01 1 6 C0.67 4.02 0.34 2.04 0 0 Z " fill="#573B83" transform="translate(690,330)"/>
<path d="M0 0 C0.66 0.33 1.32 0.66 2 1 C-2.76174209 4.17449473 -7.60889309 6.91621307 -12.75 9.4375 C-13.83796875 9.97246094 -14.9259375 10.50742187 -16.046875 11.05859375 C-19 12 -19 12 -21.390625 11.16015625 C-21.92171875 10.77730469 -22.4528125 10.39445312 -23 10 C-22.17757812 9.69707031 -21.35515625 9.39414062 -20.5078125 9.08203125 C-14.08566656 6.67187256 -7.94797547 4.11231392 -1.92578125 0.8203125 C-1.29027344 0.54960937 -0.65476562 0.27890625 0 0 Z " fill="#422475" transform="translate(275,327)"/>
<path d="M0 0 C1.32 0 2.64 0 4 0 C4 2.31 4 4.62 4 7 C2.34385343 7.38218767 0.67542976 7.71395102 -1 8 C-2 7 -2 7 -2.1875 4.5625 C-2 2 -2 2 0 0 Z " fill="#7025CD" transform="translate(777,231)"/>
<path d="M0 0 C0.66 0.33 1.32 0.66 2 1 C1.01 2.485 1.01 2.485 0 4 C-0.21314985 7.4103976 -0.084894 9.74531799 1 13 C0.34 13 -0.32 13 -1 13 C-1.66 10.36 -2.32 7.72 -3 5 C-3.61488281 5.22816406 -4.22976563 5.45632813 -4.86328125 5.69140625 C-5.67152344 5.97886719 -6.47976563 6.26632812 -7.3125 6.5625 C-8.51326172 6.99755859 -8.51326172 6.99755859 -9.73828125 7.44140625 C-12 8 -12 8 -15 7 C-12.54595776 5.80283341 -10.08748321 4.6170654 -7.625 3.4375 C-6.57699219 2.92413086 -6.57699219 2.92413086 -5.5078125 2.40039062 C-3.69947784 1.53969288 -1.85148044 0.76347564 0 0 Z " fill="#3F1C6E" transform="translate(288,273)"/>
<path d="M0 0 C1.66611905 -0.042721 3.33382885 -0.04063832 5 0 C6 1 6 1 6.09765625 3.06640625 C6.08605469 3.89011719 6.07445312 4.71382812 6.0625 5.5625 C6.05347656 6.38878906 6.04445313 7.21507812 6.03515625 8.06640625 C6.02355469 8.70449219 6.01195312 9.34257812 6 10 C4.35 10 2.7 10 1 10 C0.67 9.01 0.34 8.02 0 7 C-0.99 7.33 -1.98 7.66 -3 8 C-3 7.01 -3 6.02 -3 5 C-2.01 5 -1.02 5 0 5 C0 3.35 0 1.7 0 0 Z M2 1 C0.64381501 2.12534105 0.64381501 2.12534105 0.9375 5.0625 C0.958125 6.031875 0.97875 7.00125 1 8 C2.32 7.67 3.64 7.34 5 7 C4.65555119 4.52733235 4.65555119 4.52733235 4 2 C3.34 1.67 2.68 1.34 2 1 Z " fill="#6223BA" transform="translate(436,223)"/>
<path d="M0 0 C0.33 0 0.66 0 1 0 C1.0501123 0.60062256 1.10022461 1.20124512 1.15185547 1.82006836 C1.38316547 4.52681499 1.62888405 7.23206122 1.875 9.9375 C1.95363281 10.88302734 2.03226562 11.82855469 2.11328125 12.80273438 C2.19707031 13.70185547 2.28085937 14.60097656 2.3671875 15.52734375 C2.47716064 16.77632446 2.47716064 16.77632446 2.58935547 18.05053711 C2.72486816 18.69385986 2.86038086 19.33718262 3 20 C3.66 20.33 4.32 20.66 5 21 C3.02 21.99 3.02 21.99 1 23 C-0.24911667 15.34916042 -0.09053426 7.72559014 0 0 Z " fill="#5A4486" transform="translate(414,348)"/>
<path d="M0 0 C0.66 0.33 1.32 0.66 2 1 C1.01 1.33 0.02 1.66 -1 2 C-1.309375 2.639375 -1.61875 3.27875 -1.9375 3.9375 C-3 6 -3 6 -7 8 C-7 10.97 -7 13.94 -7 17 C-9 15 -9 15 -9.5625 12.375 C-8.72440574 7.34643446 -5.62987386 4.44098903 -2 1 C-1.34 0.67 -0.68 0.34 0 0 Z " fill="#725992" transform="translate(574,312)"/>
<path d="M0 0 C1.32 0.99 2.64 1.98 4 3 C3.6875 4.875 3.6875 4.875 3 7 C2.01 7.66 1.02 8.32 0 9 C-2 7 -2 7 -2.25 4.5 C-2 2 -2 2 0 0 Z " fill="#FDFDFC" transform="translate(234,438)"/>
<path d="M0 0 C0.598125 0.226875 1.19625 0.45375 1.8125 0.6875 C1.4825 2.3375 1.1525 3.9875 0.8125 5.6875 C-0.8375 6.0175 -2.4875 6.3475 -4.1875 6.6875 C-4.875 4.875 -4.875 4.875 -5.1875 2.6875 C-3.58493056 0.24147296 -2.95482043 -0.4221172 0 0 Z " fill="#34046A" transform="translate(789.1875,213.3125)"/>
<path d="M0 0 C4.29 0.66 8.58 1.32 13 2 C13 4.97 13 7.94 13 11 C12.67 11 12.34 11 12 11 C11.67 9.02 11.34 7.04 11 5 C10.37351562 4.89042969 9.74703125 4.78085937 9.1015625 4.66796875 C7.87566406 4.43013672 7.87566406 4.43013672 6.625 4.1875 C5.81289063 4.03667969 5.00078125 3.88585937 4.1640625 3.73046875 C2 3 2 3 0 0 Z " fill="#321965" transform="translate(567,329)"/>
<path d="M0 0 C0.33 0 0.66 0 1 0 C1 2.64 1 5.28 1 8 C0.49210937 7.72285156 -0.01578125 7.44570313 -0.5390625 7.16015625 C-4.7077298 4.9665317 -8.24131553 3.47586845 -13 3 C-13 2.67 -13 2.34 -13 2 C-11.741875 1.95875 -10.48375 1.9175 -9.1875 1.875 C-8.47980469 1.85179687 -7.77210938 1.82859375 -7.04296875 1.8046875 C-5 2 -5 2 -2 4 C-1.34 2.68 -0.68 1.36 0 0 Z " fill="#31125E" transform="translate(298,358)"/>
<path d="M0 0 C1.9375 0.5625 1.9375 0.5625 4 2 C4.75 5.625 4.75 5.625 5 9 C4.34 9 3.68 9 3 9 C0 3.375 0 3.375 0 0 Z " fill="#3F0981" transform="translate(205,226)"/>
<path d="M0 0 C1.32 0 2.64 0 4 0 C3.67 1.65 3.34 3.3 3 5 C1.68 4.67 0.36 4.34 -1 4 C-1 1 -1 1 0 0 Z " fill="#DED1F3" transform="translate(321,423)"/>
<path d="M0 0 C2.29633824 3.44450737 2.54016485 5.93812283 3 10 C2.34 8.68 1.68 7.36 1 6 C0.01 6.495 0.01 6.495 -1 7 C-1.04254356 5.00045254 -1.04080783 2.99958364 -1 1 C-0.67 0.67 -0.34 0.34 0 0 Z " fill="#462A81" transform="translate(680,296)"/>
<path d="M0 0 C0.66 0.33 1.32 0.66 2 1 C1.01 1.33 0.02 1.66 -1 2 C-1.69937532 3.31647119 -2.36729133 4.65022151 -3 6 C-3.99 6.495 -3.99 6.495 -5 7 C-4.60196439 4.11424181 -4.20990931 3.17810487 -1.9375 1.25 C-1.298125 0.8375 -0.65875 0.425 0 0 Z " fill="#A087B8" transform="translate(574,312)"/>
<path d="M0 0 C0.66 0 1.32 0 2 0 C2 0.66 2 1.32 2 2 C1.34 2 0.68 2 0 2 C0 1.34 0 0.68 0 0 Z " fill="#380258" transform="translate(306,238)"/>
<path d="M0 0 C0.33 0.66 0.66 1.32 1 2 C0.34 1.67 -0.32 1.34 -1 1 C-0.67 0.67 -0.34 0.34 0 0 Z " fill="#761BDF" transform="translate(239,134)"/>
</svg>
