<?xml version="1.0" encoding="UTF-8"?>
<svg version="1.1" xmlns="http://www.w3.org/2000/svg" width="1024" height="1024">
<path d="M0 0 C337.92 0 675.84 0 1024 0 C1024 337.92 1024 675.84 1024 1024 C686.08 1024 348.16 1024 0 1024 C0 686.08 0 348.16 0 0 Z " fill="#642DDD" transform="translate(0,0)"/>
<path d="M0 0 C6.01525841 3.96460213 7.47911105 8.45978226 9.234375 15.19140625 C9.75 17.8125 9.75 17.8125 9.75 21.8125 C10.74 22.1425 11.73 22.4725 12.75 22.8125 C16.849142 29.43023708 18.82098219 37.10527565 20.8359375 44.55078125 C21.91945305 48.41717222 23.25981011 52.08702526 24.75 55.8125 C25.3584375 55.4515625 25.966875 55.090625 26.59375 54.71875 C34.20255432 50.69055948 43.20979328 48.54360062 51.75 50.8125 C53.40169518 51.78553263 55.0314589 52.79622864 56.64453125 53.83203125 C64.23942259 58.2447825 71.93417119 57.47067715 80.4375 57.1875 C82.02533955 57.15733575 83.61323487 57.12997143 85.20117188 57.10546875 C89.05218408 57.04004211 92.90045996 56.93689478 96.75 56.8125 C96.42 56.1525 96.09 55.4925 95.75 54.8125 C92.12 55.1425 88.49 55.4725 84.75 55.8125 C82.75 52.8125 82.75 52.8125 83.125 50.625 C83.33125 50.026875 83.5375 49.42875 83.75 48.8125 C92.31314312 46.95094715 92.31314312 46.95094715 95.75 49.01171875 C97.375 50.625 97.375 50.625 99.75 53.8125 C99.75 54.4725 99.75 55.1325 99.75 55.8125 C100.62140625 55.5959375 101.4928125 55.379375 102.390625 55.15625 C121.03345096 50.79818679 121.03345096 50.79818679 129.75 53.8125 C133.30620937 58.00374676 133.01604993 61.58018467 132.75 66.8125 C134.4 66.4825 136.05 66.1525 137.75 65.8125 C138.01358704 61.46331384 136.95891405 57.96814204 135.75 53.8125 C135.75 52.4925 135.75 51.1725 135.75 49.8125 C134.76 50.4725 133.77 51.1325 132.75 51.8125 C130.0625 51.9375 130.0625 51.9375 127.75 51.8125 C128.10494045 49.18594067 128.47461964 47.23281739 129.9375 45 C132.81206243 43.11666599 134.38379206 43.15245923 137.75 43.8125 C141.06140208 46.22284029 143.40538448 48.94501211 144.16015625 53.03515625 C144.18784578 55.34129854 144.03548255 57.52461872 143.75 59.8125 C143.66878906 60.51503906 143.58757812 61.21757812 143.50390625 61.94140625 C143.28999123 63.57045138 143.02569937 65.19276622 142.75 66.8125 C145.39 66.8125 148.03 66.8125 150.75 66.8125 C150.97151549 65.02241533 151.17682213 63.23031838 151.375 61.4375 C151.49101562 60.43976563 151.60703125 59.44203125 151.7265625 58.4140625 C151.73429687 57.55554688 151.74203125 56.69703125 151.75 55.8125 C151.09 55.1525 150.43 54.4925 149.75 53.8125 C149.75 52.8225 149.75 51.8325 149.75 50.8125 C150.41 50.4825 151.07 50.1525 151.75 49.8125 C152.39016891 48.29355377 152.96323805 46.74599302 153.5 45.1875 C158.17291097 33.4384667 166.60944355 29.63715043 177.75 24.8125 C180.72129149 23.61206418 183.65149841 22.62212812 186.75 21.8125 C187.43707031 21.61011719 188.12414062 21.40773437 188.83203125 21.19921875 C198.72356029 18.57930025 208.29701912 18.96721964 217.75 22.8125 C218.41 21.4925 219.07 20.1725 219.75 18.8125 C224.24652778 18.44791667 224.24652778 18.44791667 226.5625 20.125 C227.75 21.8125 227.75 21.8125 227.75 24.8125 C223.79 25.3075 223.79 25.3075 219.75 25.8125 C229.37890539 33.24868436 239.2074787 40.25217527 249.3894043 46.91455078 C254.10500429 50.00768076 258.69083263 53.18896739 263.15625 56.63525391 C264.75439581 57.88624122 264.75439581 57.88624122 266.75 58.8125 C266.98074219 58.24015625 267.21148437 57.6678125 267.44921875 57.078125 C273.95404058 45.74840529 290.88538201 38.03195921 302.75 33.8125 C303.60722656 33.461875 304.46445312 33.11125 305.34765625 32.75 C321.04948026 26.62245892 341.25119484 31.63272622 356.14453125 38.1484375 C365.84290774 42.62461127 374.13369257 47.23555333 381.75 54.8125 C382.43964844 54.34199219 383.12929688 53.87148438 383.83984375 53.38671875 C391.6522555 48.21059409 399.99051739 43.01917147 409.75 44.8125 C411.207281 45.43474013 412.64471743 46.10486784 414.0625 46.8125 C423.97797949 51.579707 434.92401114 47.94885742 445.0625 45.4375 C446.40664457 45.11611294 447.75104507 44.79579434 449.09570312 44.4765625 C456.09589113 42.80713808 456.09589113 42.80713808 462.98120117 40.72412109 C466.14979083 39.68086972 468.43316512 39.45964523 471.75 39.8125 C474.625 41.3125 474.625 41.3125 476.75 42.8125 C477.33394531 42.14154297 477.33394531 42.14154297 477.9296875 41.45703125 C483.25079779 35.70679917 488.90958957 31.45341185 496.84765625 30.40234375 C502.45487744 30.24253447 507.07297699 30.42165832 511.75 33.8125 C515.22822112 37.29072112 516.29625711 39.93476395 516.75 44.8125 C517.41 44.8125 518.07 44.8125 518.75 44.8125 C518.9046875 43.389375 518.9046875 43.389375 519.0625 41.9375 C519.75 38.8125 519.75 38.8125 522.75 36.8125 C525.1875 36.875 525.1875 36.875 527.75 37.8125 C531.75 42.02871622 531.75 42.02871622 531.75 44.8125 C532.41 44.8125 533.07 44.8125 533.75 44.8125 C533.79241723 47.14544775 533.79092937 49.47952567 533.75 51.8125 C532.75 52.8125 532.75 52.8125 530.1875 52.875 C529.383125 52.854375 528.57875 52.83375 527.75 52.8125 C527.605625 52.02875 527.46125 51.245 527.3125 50.4375 C526.87201075 47.84828982 526.87201075 47.84828982 525.75 45.8125 C524.1 46.1425 522.45 46.4725 520.75 46.8125 C521.41027905 52.83754637 522.97501168 58.40204278 524.75 64.1875 C525.02328125 65.10144531 525.2965625 66.01539063 525.578125 66.95703125 C526.57082769 71.20761251 526.57082769 71.20761251 528.75 74.8125 C529.52183035 73.12545579 530.29240925 71.43783901 531.0625 69.75 C531.75666016 68.23599609 531.75666016 68.23599609 532.46484375 66.69140625 C533.41964018 64.55254617 534.29429419 62.37754258 535.125 60.1875 C539.17047846 51.78535243 545.20253987 46.08968412 552.75 40.8125 C553.60722656 40.15636719 554.46445312 39.50023437 555.34765625 38.82421875 C561.30540619 34.54664001 565.68017092 33.05571261 573.0234375 33.2734375 C578.89467398 34.43422637 582.46268642 37.97641979 585.75 42.8125 C587.34343954 45.66312998 588.71797795 48.58771307 590.0625 51.5625 C590.60100586 52.71298828 590.60100586 52.71298828 591.15039062 53.88671875 C593.75 59.52168155 593.75 59.52168155 593.75 61.8125 C594.41 61.8125 595.07 61.8125 595.75 61.8125 C595.89695312 61.27882813 596.04390625 60.74515625 596.1953125 60.1953125 C597.85627075 54.67787647 600.20341636 50.21179673 603.28515625 45.359375 C604.74599961 42.81945534 605.68154108 40.39247949 606.625 37.625 C608.64078961 32.17203067 612.1403029 29.19145273 616.75 25.8125 C615.43 25.1525 614.11 24.4925 612.75 23.8125 C613.41 22.4925 614.07 21.1725 614.75 19.8125 C616.4 19.8125 618.05 19.8125 619.75 19.8125 C620.08 20.8025 620.41 21.7925 620.75 22.8125 C621.97976563 22.28849609 621.97976563 22.28849609 623.234375 21.75390625 C624.85085938 21.07134766 624.85085938 21.07134766 626.5 20.375 C627.56734375 19.92253906 628.6346875 19.47007812 629.734375 19.00390625 C635.99973472 16.52860221 642.03841376 15.91017407 648.75 16.8125 C657.75752089 20.95109068 660.23520618 29.58465814 663.5546875 38.30078125 C665.03904083 42.66167552 666.06706321 47.03481359 666.9765625 51.546875 C669.44115744 61.95294252 673.78757124 71.9080791 677.75 81.8125 C678.20117188 82.94026855 678.65234375 84.06803711 679.1171875 85.22998047 C686.76760698 104.44698799 686.76760698 104.44698799 696.12890625 122.8671875 C697.75 125.8125 697.75 125.8125 699.2109375 129.2265625 C700.86252318 133.07467329 702.75344272 136.67182169 704.8125 140.3125 C705.2031665 141.0039209 705.59383301 141.6953418 705.99633789 142.40771484 C712.18062936 153.20046324 719.32137882 163.35758967 726.61499023 173.42236328 C730.16760126 178.33003443 731.59972401 181.66579518 730.75 187.8125 C729.64230862 190.39066377 728.31739499 192.46140752 726.75 194.8125 C726.09 194.8125 725.43 194.8125 724.75 194.8125 C724.49347656 195.52148438 724.23695313 196.23046875 723.97265625 196.9609375 C722.65302751 200.03866588 721.03052186 202.64410987 719.1875 205.4375 C716.8181601 209.03337969 715.0579748 211.88210124 714.37109375 216.1875 C711.60146929 227.89308263 699.39132828 235.41043162 689.94189453 241.47705078 C680.79343818 247.05090423 671.48680914 249.34268658 660.75 247.8125 C657.32421875 246.51953125 657.32421875 246.51953125 653.75 244.8125 C653.12609375 244.51585449 652.5021875 244.21920898 651.859375 243.91357422 C649.87601287 242.96030334 647.90525272 241.98506865 645.9375 241 C645.24043945 240.65106689 644.54337891 240.30213379 643.82519531 239.94262695 C636.80387729 236.39054184 630.00192208 232.61408881 623.75 227.8125 C623.87375 229.6378125 623.87375 229.6378125 624 231.5 C623.98322469 234.65935015 623.75168508 235.80939945 622.1875 238.6875 C618.74542587 241.68828257 615.29737837 242.69917369 610.73046875 242.90234375 C606.52861829 243.08768497 606.52861829 243.08768497 603.0859375 245.32421875 C602.07573478 246.55977439 601.08941454 247.8152728 600.12890625 249.08984375 C598.31997397 251.34972799 596.35126243 252.58412608 593.75 253.8125 C593.09 253.8125 592.43 253.8125 591.75 253.8125 C591.6675 254.410625 591.585 255.00875 591.5 255.625 C590.51395621 258.50096106 589.32305577 259.24007703 586.75 260.8125 C585.945625 261.06 585.14125 261.3075 584.3125 261.5625 C581.46946885 262.94934446 580.94573051 263.83061285 579.3125 266.4375 C578.0859375 268.32421875 578.0859375 268.32421875 576.75 269.8125 C573.4375 270.25 573.4375 270.25 570.75 269.8125 C570.646875 270.740625 570.54375 271.66875 570.4375 272.625 C569.75 275.8125 569.75 275.8125 568.6875 277.6875 C565.53200008 279.51972576 562.30002152 279.37458674 558.75 278.8125 C556.75 277.4375 556.75 277.4375 555.75 275.8125 C555.75 275.1525 555.75 274.4925 555.75 273.8125 C554.76 273.791875 553.77 273.77125 552.75 273.75 C547.50602873 272.98724054 544.24202943 269.58475401 540.75 265.8125 C539.75214511 264.36688971 538.77213306 262.90876064 537.8125 261.4375 C536.08757824 258.9624045 535.29209034 257.97861006 532.37890625 257.0859375 C530.13882576 256.84131093 528.00034389 256.73248777 525.75 256.8125 C526.08 257.4725 526.41 258.1325 526.75 258.8125 C527.38936472 263.37939088 527.54979531 267.44924721 524.6875 271.25 C520.36118241 275.02402172 516.6661533 275.61763695 511.0625 276.1875 C507.12406045 275.74163892 506.28747879 274.71247576 503.75 271.8125 C502.76 271.8125 501.77 271.8125 500.75 271.8125 C500.75 274.4525 500.75 277.0925 500.75 279.8125 C502.07 279.8125 503.39 279.8125 504.75 279.8125 C504.75 278.8225 504.75 277.8325 504.75 276.8125 C505.41 276.8125 506.07 276.8125 506.75 276.8125 C506.94412181 278.29081221 507.13012131 279.77019316 507.3125 281.25 C507.41691406 282.07371094 507.52132812 282.89742188 507.62890625 283.74609375 C507.66886719 284.42800781 507.70882812 285.10992187 507.75 285.8125 C506.75 286.8125 506.75 286.8125 503.8125 287 C500.75 286.8125 500.75 286.8125 498.75 284.8125 C498.48008094 282.12410615 498.66262643 279.52108064 498.75 276.8125 C497.43 276.4825 496.11 276.1525 494.75 275.8125 C494.6571875 274.636875 494.6571875 274.636875 494.5625 273.4375 C494.294375 272.57125 494.02625 271.705 493.75 270.8125 C491.24908038 269.62031158 491.24908038 269.62031158 488.75 268.8125 C489.01554688 269.63492187 489.28109375 270.45734375 489.5546875 271.3046875 C495.45842842 289.96395625 496.79128098 307.6465489 491.75 326.8125 C492.389375 326.4825 493.02875 326.1525 493.6875 325.8125 C500.60162343 323.55482704 506.87821183 324.94880334 513.75 326.8125 C514.4195874 326.98942383 515.0891748 327.16634766 515.77905273 327.34863281 C531.70639876 331.6517493 531.70639876 331.6517493 536.75 337.8125 C537.41 338.616875 538.07 339.42125 538.75 340.25 C540.98247072 345.97070621 538.14879245 352.00330292 536 357.4375 C535.44783697 358.86064617 534.89575459 360.28382362 534.34375 361.70703125 C534.07046875 362.40521973 533.7971875 363.1034082 533.515625 363.82275391 C532.84621959 365.56243951 532.21655756 367.31731228 531.59375 369.07421875 C528.23741018 378.43600947 523.58698356 387.03913354 518.84277344 395.75341797 C517.88460955 397.55885904 517.00210526 399.40403447 516.1328125 401.25390625 C514.75 403.8125 514.75 403.8125 511.75 405.8125 C509.0625 405.9375 509.0625 405.9375 506.75 405.8125 C506.54375 406.39 506.3375 406.9675 506.125 407.5625 C504.16868132 410.76374875 502.02634913 411.99773322 498.75 413.8125 C495.95482763 414.17696293 493.64587442 414.33938305 490.875 414.25 C490.16029541 414.2389624 489.44559082 414.2279248 488.70922852 414.21655273 C484.26474737 414.07475625 480.88466543 413.44428718 476.9296875 411.51953125 C473.73880968 410.48449741 470.65663013 410.62540938 467.3125 410.5625 C459.87392354 410.24264121 455.86519989 408.12177252 450.75 402.8125 C450.12996094 403.17601562 449.50992188 403.53953125 448.87109375 403.9140625 C428.28294671 415.60165689 405.20675967 421.22892305 381.75 414.8125 C371.5903601 411.42031382 361.13822285 407.64734825 352.75 400.8125 C352.17185547 401.11051514 351.59371094 401.40853027 350.99804688 401.71557617 C348.94860387 402.71559218 346.9135691 403.55953319 344.78125 404.36328125 C344.04519531 404.65009766 343.30914063 404.93691406 342.55078125 405.23242188 C341.0208447 405.82595413 339.48694197 406.40936543 337.94921875 406.98242188 C333.18817065 408.86266066 330.78164685 410.55360005 327.75 414.8125 C321.69707209 419.88440232 316.21648036 422.85546143 308.2109375 422.31640625 C304.51876832 421.56039066 302.52154411 420.35932431 299.75 417.8125 C299.75 417.1525 299.75 416.4925 299.75 415.8125 C298.43 415.1525 297.11 414.4925 295.75 413.8125 C295.75 413.1525 295.75 412.4925 295.75 411.8125 C295.09 411.8125 294.43 411.8125 293.75 411.8125 C294.183125 412.93527344 294.61625 414.05804687 295.0625 415.21484375 C295.62576701 416.72627688 296.18822376 418.23801214 296.75 419.75 C297.03617188 420.48541016 297.32234375 421.22082031 297.6171875 421.97851562 C299.95120889 428.34150251 300.88758259 434.32865332 298.75 440.875 C298.42 441.514375 298.09 442.15375 297.75 442.8125 C298.08 443.1425 298.41 443.4725 298.75 443.8125 C298.79063832 445.47867115 298.792721 447.14638095 298.75 448.8125 C297.1 449.1425 295.45 449.4725 293.75 449.8125 C293.853125 450.84375 293.95625 451.875 294.0625 452.9375 C293.75588058 456.73958079 293.21765798 458.88937495 290.5703125 461.703125 C286.60751515 464.11822038 282.15862325 463.66557186 277.75 462.8125 C275.04124635 461.14557468 273.73090251 460.12166635 271.75 457.8125 C271.01136719 456.99265625 271.01136719 456.99265625 270.2578125 456.15625 C269.11949295 454.87087482 267.9968954 453.57147772 266.88671875 452.26171875 C265.1956332 450.32330807 263.47662636 448.44713349 261.70703125 446.58203125 C260.89999756 445.72738281 260.89999756 445.72738281 260.07666016 444.85546875 C259.00238362 443.72135018 257.92279612 442.59223358 256.83740234 441.46875 C253.9323942 438.38657292 252.20614678 435.76283879 250.75 431.8125 C248.38804589 431.20647335 248.38804589 431.20647335 245.75 430.8125 C243.3125 429.1875 243.3125 429.1875 240.75 426.8125 C240.28722656 426.38582031 239.82445312 425.95914062 239.34765625 425.51953125 C228.52358581 414.35092806 225.356852 397.36882647 221.75 382.8125 C221.36079094 381.25908605 220.97147907 379.70569786 220.58203125 378.15234375 C220.30746094 377.05019531 220.03289062 375.94804688 219.75 374.8125 C218.98123535 375.05556885 218.2124707 375.2986377 217.42041016 375.54907227 C209.04127335 378.16684578 200.61363617 380.51574448 192.125 382.75 C190.79569693 383.1010903 189.46643308 383.45232912 188.13720703 383.80371094 C185.52402402 384.49432676 182.91053875 385.18376032 180.296875 385.87255859 C177.2881603 386.66988456 174.28357997 387.47983165 171.28125 388.30078125 C130.28775403 399.46599947 130.28775403 399.46599947 118.75 393.8125 C115.12135212 391.30790313 112.26215926 388.6721959 110 384.875 C107.60485095 381.61493601 105.68030122 380.37703314 102.25 378.3125 C96.54310084 374.87314211 93.87974511 372.20173533 91.75 365.8125 C91.61843473 362.12867231 91.58017862 359.32196415 92.75 355.8125 C91.1545651 353.75522868 89.48473712 351.75375344 87.75 349.8125 C85.81509718 345.94269436 86.69372014 341.88030116 87.75 337.8125 C92.27662035 329.22753037 99.85323689 322.22248183 106.4921875 315.25390625 C108.87998633 312.7467849 111.19442434 310.2010933 113.4375 307.5625 C117.11374851 303.27666947 121.16439132 299.36929717 125.19921875 295.42578125 C127.56906732 292.99786595 129.6827159 290.49948519 131.75 287.8125 C130.66215032 284.56266865 130.66215032 284.56266865 128.75 281.8125 C128.25 278.625 128.25 278.625 128.75 274.8125 C131.47111608 271.35553281 134.48115349 269.19045428 138.6875 267.9375 C139.368125 267.89625 140.04875 267.855 140.75 267.8125 C141.08 266.4925 141.41 265.1725 141.75 263.8125 C141.0075 264.1425 140.265 264.4725 139.5 264.8125 C130.24561327 267.28033646 122.75601108 266.31994991 114.390625 261.64453125 C108.77239559 257.74667682 105.91647898 253.44710884 104.375 246.8125 C104.14585917 245.48258458 103.92957315 244.15001039 103.75 242.8125 C97.52296162 245.3724744 97.52296162 245.3724744 91.75 248.8125 C91.75 249.4725 91.75 250.1325 91.75 250.8125 C92.74 251.4725 93.73 252.1325 94.75 252.8125 C94.42 254.4625 94.09 256.1125 93.75 257.8125 C87.875 256.9375 87.875 256.9375 86.75 255.8125 C81.61472005 255.30907629 81.61472005 255.30907629 77.25 257.75 C76.425 258.430625 75.6 259.11125 74.75 259.8125 C70.80516225 260.71219984 67.60475203 261.20021073 63.75 259.8125 C63.564375 260.67875 63.564375 260.67875 63.375 261.5625 C62.74351176 263.83585767 61.86141809 265.7378529 60.75 267.8125 C61.74 268.1425 62.73 268.4725 63.75 268.8125 C63.6875 271.0625 63.6875 271.0625 62.75 273.8125 C58.05736907 277.28504689 54.71404591 278.61535233 48.75 277.8125 C46.8125 276.5625 46.8125 276.5625 45.75 274.8125 C45.75 273.4925 45.75 272.1725 45.75 270.8125 C45.28851563 271.23660156 44.82703125 271.66070312 44.3515625 272.09765625 C29.58051877 285.3799189 15.34758542 292.01392571 -4.625 291.9375 C-5.62789063 291.94136719 -6.63078125 291.94523437 -7.6640625 291.94921875 C-12.12388445 291.94338129 -16.35166166 291.85650193 -20.74609375 291.06640625 C-24.22137711 290.43206259 -24.22137711 290.43206259 -26.38671875 292.39453125 C-26.89847656 293.13058594 -27.41023438 293.86664062 -27.9375 294.625 C-32.16154608 300.05185741 -32.16154608 300.05185741 -36.25 300.8125 C-42.36480508 301.34995385 -46.01116417 301.12123842 -51.25 297.8125 C-53.21632308 297.8447348 -55.18273238 297.87860247 -57.1484375 297.9375 C-65.38887392 297.44736252 -71.10095709 290.53562145 -76.25 284.8125 C-88.08013545 271.43746314 -97.51057448 256.32408117 -106.25 240.8125 C-106.81799316 239.8222583 -106.81799316 239.8222583 -107.39746094 238.81201172 C-116.21886268 223.36116973 -122.78913512 206.72356544 -128.25 189.8125 C-128.91 189.8125 -129.57 189.8125 -130.25 189.8125 C-130.58 187.1725 -130.91 184.5325 -131.25 181.8125 C-131.91 181.8125 -132.57 181.8125 -133.25 181.8125 C-133.33221346 180.27175884 -133.38973295 178.72969346 -133.4375 177.1875 C-133.47230469 176.32898438 -133.50710937 175.47046875 -133.54296875 174.5859375 C-133.03854297 169.81070676 -131.19270391 166.7401927 -127.796875 163.3984375 C-114.40547703 152.8125 -114.40547703 152.8125 -110.25 152.8125 C-110.25 152.1525 -110.25 151.4925 -110.25 150.8125 C-104.23822854 145.7607833 -98.95321932 142.96419868 -91.05078125 143.56640625 C-90.45652344 143.64761719 -89.86226562 143.72882813 -89.25 143.8125 C-89.8790625 142.9153125 -90.508125 142.018125 -91.15625 141.09375 C-99.17171416 129.48737047 -107.31602215 117.62547311 -108.953125 103.3203125 C-109.30882226 100.31560669 -110.15541262 97.62715326 -111.25 94.8125 C-111.91 94.8125 -112.57 94.8125 -113.25 94.8125 C-115.44317853 89.46114439 -115.61654468 84.62792996 -115.625 78.9375 C-115.64949219 78.07769531 -115.67398438 77.21789062 -115.69921875 76.33203125 C-115.72368216 70.95823636 -114.93254885 67.2104419 -112.23388672 62.54223633 C-111.0619352 60.59429954 -111.0619352 60.59429954 -110 57.375 C-104.4030231 45.98115417 -93.56930001 38.14415346 -81.875 33.875 C-68.40939145 29.39152988 -55.8116969 29.97040037 -42.25 33.8125 C-42.30220703 32.63494141 -42.30220703 32.63494141 -42.35546875 31.43359375 C-42.51924238 25.07761706 -42.57500989 20.31596465 -39.25 14.8125 C-34.87833125 10.3042166 -28.76094541 7.70255877 -23.25 4.8125 C-22.22648437 4.2453125 -21.20296875 3.678125 -20.1484375 3.09375 C-12.86426966 -0.81572742 -8.07978717 -2.95222993 0 0 Z " fill="#2C0467" transform="translate(217.25,223.1875)"/>
<path d="M0 0 C337.92 0 675.84 0 1024 0 C1024 337.92 1024 675.84 1024 1024 C686.08 1024 348.16 1024 0 1024 C0 686.08 0 348.16 0 0 Z M153 33 C152.05535995 33.2033909 151.1107199 33.40678179 150.13745439 33.61633605 C148.08911094 34.079156 146.08002933 34.60589994 144.0625 35.1875 C143.33490479 35.39544189 142.60730957 35.60338379 141.85766602 35.81762695 C119.9952504 42.33971593 97.45314972 53.6024378 81.625 70.34375 C79.92417239 72.07728583 78.12497408 73.58268261 76.25 75.125 C65.63544052 84.36663383 57.98701557 95.91355433 51 108 C50.63245605 108.63196289 50.26491211 109.26392578 49.88623047 109.91503906 C34.95521232 135.88026229 31.68051066 161.45354558 31.74926625 190.97864847 C31.75529039 194.52894907 31.7495922 198.07923527 31.74544543 201.62953591 C31.73978297 207.84010394 31.74148888 214.0506353 31.7481308 220.26120186 C31.75798019 229.49654619 31.75630791 238.73186388 31.7523805 247.96721135 C31.74611519 263.50831571 31.74926575 279.04940487 31.75797462 294.59050751 C31.76659621 309.97932832 31.77149461 325.3681423 31.77130699 340.75696564 C31.77129935 341.71507649 31.7712917 342.67318734 31.77128382 343.66033185 C31.77124291 347.54975296 31.7711773 351.43917407 31.77107801 355.32859518 C31.77017243 391.79601455 31.78010956 428.26342351 31.79550768 464.73083927 C31.80913537 497.12476025 31.81536875 529.51867384 31.81469727 561.91259766 C31.81465685 563.99323164 31.81461649 566.07386563 31.81457619 568.15449962 C31.81455584 569.18313049 31.81453548 570.21176135 31.81451452 571.27156285 C31.81441372 576.44964109 31.81432314 581.62771934 31.81424427 586.80579758 C31.81422756 587.82737258 31.81421084 588.84894758 31.81419362 589.9014794 C31.81382843 616.97940138 31.8183673 644.05732244 31.82457083 671.13524365 C31.82479111 672.09847906 31.82501138 673.06171447 31.82523832 674.05413883 C31.82612654 677.92742819 31.82701494 681.80071754 31.82792928 685.67400689 C31.83108797 699.14515303 31.83259838 712.61629844 31.83304077 726.08744492 C31.83363796 743.44491555 31.83763448 760.80238009 31.84747223 778.15984812 C31.85258451 787.33802999 31.85499749 796.51620291 31.85347604 805.69438613 C31.85274102 811.8258149 31.85564979 817.95723499 31.86151985 824.08866098 C31.86476575 827.58137093 31.8664616 831.07406218 31.86375926 834.56677303 C31.86169273 838.33304692 31.86576193 842.09926656 31.87136555 845.86553574 C31.86931023 846.94416226 31.86725491 848.02278879 31.86513731 849.13410097 C31.89859258 861.42926623 33.5404343 872.24746815 37 884 C37.26425781 884.97582031 37.52851562 885.95164062 37.80078125 886.95703125 C40.75205656 896.95779831 45.9572357 905.9333273 51 915 C51.56726807 916.03640625 51.56726807 916.03640625 52.14599609 917.09375 C57.66951101 927.12113053 64.21987052 935.62260353 72 944 C72.58104492 944.6408252 73.16208984 945.28165039 73.76074219 945.94189453 C88.11769175 961.67001344 105.47690667 973.52505389 125 982 C125.62084473 982.27247559 126.24168945 982.54495117 126.88134766 982.82568359 C135.12151645 986.36509926 143.52065464 988.78384932 152.25 990.8125 C153.1363916 991.01963623 154.0227832 991.22677246 154.93603516 991.44018555 C165.50690858 993.75811963 176.11521846 994.14996219 186.90555 994.12863445 C188.04690214 994.13038749 189.18825428 994.13214053 190.36419284 994.13394669 C194.17470249 994.13858503 197.98517362 994.13614678 201.79568481 994.13371277 C204.56095507 994.13503076 207.32622337 994.13784322 210.09149253 994.14057809 C216.09670325 994.14571688 222.10190591 994.14715194 228.10711861 994.14612198 C237.0375343 994.14459407 245.96794111 994.1487654 254.89835508 994.1539966 C271.77836235 994.16365848 288.65836658 994.16648041 305.53837629 994.16705366 C318.57617142 994.16751353 331.61396536 994.16957358 344.6517601 994.17275429 C348.40720967 994.17365186 352.16265925 994.17454167 355.91810882 994.17542917 C357.31860813 994.17576074 357.31860813 994.17576074 358.74740036 994.17609901 C385.00345541 994.18225168 411.25951006 994.18619973 437.51556587 994.18575573 C438.50511898 994.18574015 439.49467209 994.18572457 440.51421166 994.18570852 C445.52946298 994.18562542 450.5447143 994.18552638 455.55996563 994.18542381 C456.55597851 994.18540387 457.5519914 994.18538392 458.57818649 994.18536337 C460.59236673 994.18532294 462.60654697 994.18528114 464.6207272 994.18523798 C495.95353632 994.18462532 527.28633461 994.19213081 558.61914062 994.20581055 C593.83720767 994.2211803 629.05526759 994.22977623 664.2733382 994.22884732 C668.0306739 994.2287727 671.7880096 994.22872399 675.54534531 994.22869301 C676.47046766 994.22868135 677.39559001 994.2286697 678.34874638 994.22865769 C693.21814682 994.22862696 708.08753783 994.23500513 722.95693547 994.24362527 C737.90831569 994.25211351 752.85968218 994.25308254 767.81106348 994.24651595 C776.68560823 994.24282814 785.56011116 994.24462963 794.43465145 994.25445829 C800.37272336 994.26047734 806.31076513 994.25914153 812.24883568 994.25198779 C815.62545784 994.24812246 819.00193396 994.24840478 822.37856056 994.25544515 C848.32065489 994.31080071 848.32065489 994.31080071 873.8125 989.875 C875.04250732 989.55305664 875.04250732 989.55305664 876.29736328 989.22460938 C915.98853991 978.41138045 950.74127895 953.68607587 971.67504883 917.94824219 C973.52846701 914.67184122 975.27556036 911.34564983 977 908 C977.31807617 907.39897461 977.63615234 906.79794922 977.96386719 906.17871094 C981.91729463 898.6477828 984.84028902 890.96861934 987.25 882.8125 C987.60130981 881.64908081 987.60130981 881.64908081 987.9597168 880.4621582 C993.14971382 861.84404412 993.43273332 843.06762255 993.38095093 823.87609863 C993.38275138 821.06409556 993.38905947 818.25210639 993.39513266 815.44010973 C993.4058964 809.3575143 993.40568339 803.27499895 993.39799118 797.19239998 C993.3865835 788.14695179 993.39247601 779.10157041 993.4016161 770.05612259 C993.41736954 753.89540379 993.41606166 737.7347207 993.40737936 721.57399856 C993.39981887 707.4310882 993.39786903 693.28819089 993.4014473 679.14527893 C993.40167645 678.20545406 993.40190561 677.26562919 993.40214171 676.29732478 C993.40307579 672.48182476 993.404031 668.66632475 993.405021 664.85082475 C993.41418844 629.0923783 993.40589279 593.33395453 993.38973031 557.57551158 C993.37549456 525.83857761 993.37676848 494.10167975 993.39111328 462.36474609 C993.40719333 426.66976032 993.41353817 390.97479456 993.40427649 355.27980566 C993.40331441 351.47144413 993.40237588 347.6630826 993.4014473 343.85472107 C993.40121006 342.91707406 993.40097283 341.97942705 993.40072841 341.01336649 C993.39732266 326.88281194 993.40129436 312.7522719 993.40888596 298.62171936 C993.41747914 282.54717609 993.41528645 266.47267395 993.39904372 250.39813578 C993.39026279 241.41286626 993.38961926 232.42768591 993.40098225 223.44241878 C993.40774613 217.42826508 993.40345694 211.41418236 993.39046794 205.40003911 C993.3833836 201.9816995 993.38246251 198.56367931 993.39168589 195.14532381 C993.49371291 154.17077756 984.22935139 116.63807933 957 85 C956.47809082 84.38769531 955.95618164 83.77539062 955.41845703 83.14453125 C931.22736512 55.08431104 898.98766427 38.92051907 863 32 C862.08832681 31.82270009 861.17665361 31.64540017 860.23735396 31.46272754 C853.08048258 30.16302823 846.21827086 29.71523117 838.95389366 29.74552441 C837.21907241 29.74071469 837.21907241 29.74071469 835.44920427 29.73580781 C832.26134082 29.72897455 829.07362993 29.73098622 825.88576934 29.73686353 C822.40899192 29.74105681 818.93223531 29.73361893 815.45546305 29.72771102 C809.36913328 29.71896844 803.28283717 29.71762999 797.19650269 29.72121429 C788.14546723 29.72653042 779.09446425 29.7204168 770.04343233 29.71213136 C752.93552898 29.69690078 735.82764044 29.69518537 718.71973173 29.69765439 C705.50601995 29.6994881 692.29231301 29.6977258 679.07860184 29.69342995 C677.17918492 29.69282754 675.279768 29.69222634 673.38035107 29.69162634 C670.51797556 29.69071907 667.65560005 29.68981041 664.79322455 29.68889399 C638.18350656 29.68046566 611.5737904 29.67612789 584.96407127 29.68030071 C583.45972299 29.68053528 583.45972299 29.68053528 581.92498384 29.68077458 C576.84208357 29.68158034 571.75918331 29.68242611 566.67628305 29.68328788 C565.6668337 29.68345897 564.65738436 29.68363006 563.61734564 29.68380633 C561.5759936 29.68415299 559.53464156 29.68450152 557.49328952 29.68485192 C525.7375401 29.69020782 493.98181846 29.68228192 462.22607422 29.66381836 C426.53336533 29.64308997 390.84067364 29.63237733 355.1479584 29.63639385 C351.34006985 29.63678918 347.53218131 29.63715073 343.72429276 29.63749123 C342.78672205 29.63758196 341.84915134 29.63767269 340.8831694 29.63776617 C326.74530082 29.6389309 312.60744965 29.63229324 298.46958542 29.62167931 C282.38418052 29.60961545 266.29881388 29.60808192 250.2134084 29.62046947 C241.2188697 29.62708676 232.22442258 29.6254932 223.22989126 29.61188096 C217.21183237 29.60361063 211.19384176 29.60636741 205.17578837 29.61785623 C201.75343293 29.62408729 198.33140026 29.624101 194.90903287 29.61399289 C180.62569548 29.57474875 166.98627325 29.95314681 153 33 Z " fill="#FDFDFD" transform="translate(0,0)"/>
</svg>